<ttFont>
          <CharString index="0">
            -105 callsubr
            165 -97 callgsubr
            endchar
          </CharString>
          <CharString index="1">
            390 25 rmoveto
            -46 callgsubr
            -10 210 -98 callsubr
            -210 690 rlineto
            -15 hlineto
            -195 -680 -83 callgsubr
            50 170 rlineto
            205 hlineto
            -106 22 callsubr
            100 -331 rlineto
            -194 hlineto
            return
          </CharString>
          <CharString index="2">
            rmoveto
            -107 callgsubr
            return
          </CharString>
          <CharString index="3">
            -55 25 -50 35 -35 vhcurveto
            10 -44 callsubr
            45 35 vvcurveto
            50 5 -28 callgsubr
            return
          </CharString>
          <CharString index="4">
            -60 140 -85 callsubr
            300 -10 callgsubr
            -95 -95 -55 -55 -55 -25 5 -10 0 vhcurveto
            80 20 rlineto
            0 -5 15 20 vvcurveto
            45 30 30 40 vhcurveto
            return
          </CharString>
          <CharString index="5">
            510 22 callsubr
            -65 callsubr
            -115 -120 -120 -245 -245 120 -120 115 -60 callsubr
            vhcurveto
            return
          </CharString>
          <CharString index="6">
            190 -6 callgsubr
            -95 callgsubr
            return
          </CharString>
          <CharString index="7">
            -95 300 190 hlineto
            -104 callsubr
            return
          </CharString>
          <CharString index="8">
            60 15 rlineto
            10 -205 -10 vlineto
            -62 callsubr
            return
          </CharString>
          <CharString index="9">
            10 -82 callgsubr
            return
          </CharString>
          <CharString index="10">
            rmoveto
            -25 14 callgsubr
            -130 115 130 rlineto
            -25 hlineto
            -90 -60 rlineto
            endchar
          </CharString>
          <CharString index="11">
            rmoveto
            30 hlineto
            100 120 rlineto
            -90 hlineto
            endchar
          </CharString>
          <CharString index="12">
            rmoveto
            -30 -20 -20 -30 -25 20 -20 25 9 11 5 0 hvcurveto
            return
          </CharString>
          <CharString index="13">
            90 -60 rlineto
            25 hlineto
            -115 130 -115 -130 rlineto
            25 hlineto
            endchar
          </CharString>
          <CharString index="14">
            40 45 -45 -165 5 hvcurveto
            -180 hlineto
            165 5 45 45 40 hhcurveto
            return
          </CharString>
          <CharString index="15">
            0 -40 51 -65 -115 -120 -120 -245 -245 120 -120 125 95 80 85 120 10 -56 callsubr
            -105 -10 -80 -80 -70 hhcurveto
            -85 -75 75 270 270 75 75 75 hvcurveto
            return
          </CharString>
          <CharString index="16">
            140 20 rmoveto
            250 440 rlineto
            -335 27 callsubr
            -30 -45 vvcurveto
            -30 -5 -45 -56 callgsubr
            30 25 45 55 vvcurveto
            160 hlineto
            -250 -440 rlineto
            355 hlineto
            7 callsubr
            45 vvcurveto
            30 -18 callsubr
            -30 -25 -45 -55 vvcurveto
            return
          </CharString>
          <CharString index="17">
            0 -45 50 -80 -95 -75 -75 -90 vhcurveto
            -235 325 0 -165 vvcurveto
            -90 -55 -55 -80 -100 -55 60 110 -30 vhcurveto
            -15 27 callsubr
            -50 -45 vvcurveto
            return
          </CharString>
          <CharString index="18">
            0 5 -5 -10 vvcurveto
            -50 -60 -25 0 vhcurveto
            10 -16 rlineto
            0 85 26 115 vvcurveto
            40 28 callgsubr
            vhcurveto
            return
          </CharString>
          <CharString index="19">
            rmoveto
            45 -35 30 -45 -45 -35 -30 -45 -45 35 -30 45 45 35 30 45 vhcurveto
            -45 hmoveto
            -35 -15 -20 -20 -20 -15 20 35 35 15 20 20 20 15 -20 -35 vhcurveto
            endchar
          </CharString>
          <CharString index="20">
            -101 callsubr
            395 vlineto
            -102 callgsubr
            -180 hlineto
            return
          </CharString>
          <CharString index="21">
            215 -15 rmoveto
            90 65 65 65 hvcurveto
            165 -255 0 100 vvcurveto
            40 35 35 45 55 55 -55 -95 25 14 callsubr
            return
          </CharString>
          <CharString index="22">
            -98 callsubr
            rlineto
            return
          </CharString>
          <CharString index="23">
            rmoveto
            -96 callgsubr
            return
          </CharString>
          <CharString index="24">
            218 rmoveto
            116 -193 -21 callsubr
            -157 262 97 138 -99 callgsubr
            -165 -235 rlineto
            510 -140 -10 vlineto
            60 -15 rlineto
            -650 -60 callgsubr
            138 vlineto
            return
          </CharString>
          <CharString index="25">
            665 -77 callgsubr
            return
          </CharString>
          <CharString index="26">
            40 5 50 -29 callsubr
            -20 -5 -20 return
          </CharString>
          <CharString index="27">
            -4 callgsubr
            -60 vlineto
            0 35 75 80 80 60 -60 -90 vhcurveto
            10 callsubr
            60 18 callsubr
            55 15 rlineto
            7 callgsubr
            95 -35 35 -40 -65 -35 -90 0 vhcurveto
            -340 vlineto
            55 18 callsubr
            return
          </CharString>
          <CharString index="28">
            24 callgsubr
            205 -85 callsubr
            325 40 vlineto
            90 35 -35 -90 10 hvcurveto
            20 -175 rlineto
            return
          </CharString>
          <CharString index="29">
            33 21 -21 415 20 -20 145 140 -20 hstemhm
            3 callsubr
            hintmask 10111100
            175 530 rmoveto
            140 15 rlineto
            15 -140 140 -77 callsubr
            -115 -60 -15 vlineto
            -62 callsubr
            -505 -60 callgsubr
            300 -58 callgsubr
            -260 -5 callgsubr
            260 vlineto
            hintmask 11011100
            25 callsubr
            endchar
          </CharString>
          <CharString index="30">
            -50 callgsubr
            -62 callsubr
            return
          </CharString>
          <CharString index="31">
            -21 700 -20 return
          </CharString>
          <CharString index="32">
            190 20 rmoveto
            340 95 vlineto
            45 -90 rlineto
            return
          </CharString>
          <CharString index="33">
            78 0 20 320 20 320 20 6 callsubr
            240 95 cntrmask 11100000
            -8 callgsubr
            -315 -60 -20 60 -315 -13 callgsubr
            -30 -360 rmoveto
            140 20 -140 320 30 14 callgsubr
            95 -95 -235 -235 -95 -95 -115 hvcurveto
            -30 hlineto
            endchar
          </CharString>
          <CharString index="34">
            rmoveto
            75 50 50 65 80 -45 callsubr
            vhcurveto
            15 -44 callsubr
            50 45 vvcurveto
            return
          </CharString>
          <CharString index="35">
            rmoveto
            30 hlineto
            90 120 rlineto
            -80 hlineto
            70 -120 rmoveto
            30 hlineto
            90 120 rlineto
            -80 hlineto
            endchar
          </CharString>
          <CharString index="36">
            vlineto
            55 15 rlineto
            -66 callsubr
            return
          </CharString>
          <CharString index="37">
            vlineto
            -46 callgsubr
            -10 200 -85 callsubr
            return
          </CharString>
          <CharString index="38">
            6 -21 36 -76 callsubr
            35 -20 return
          </CharString>
          <CharString index="39">
            29 21 -55 40 hhcurveto
            35 30 30 70 hvcurveto
            endchar
          </CharString>
          <CharString index="40">
            340 -625 rlineto
            15 675 hlineto
            -37 callgsubr
            return
          </CharString>
          <CharString index="41">
            10 -195 -10 vlineto
            -62 callsubr
            -410 vlineto
            -46 callgsubr
            return
          </CharString>
          <CharString index="42">
            245 -120 120 -115 return
          </CharString>
          <CharString index="43">
            -43 callsubr
            195 -98 callsubr
            rlineto
            300 -10 callgsubr
            -80 return
          </CharString>
          <CharString index="44">
            -37 -15 20 225 6 callgsubr
            return
          </CharString>
          <CharString index="45">
            60 -15 rlineto
            return
          </CharString>
          <CharString index="46">
            10 rmoveto
            -10 200 -85 callsubr
            675 -42 callgsubr
            return
          </CharString>
          <CharString index="47">
            115 120 120 245 return
          </CharString>
          <CharString index="48">
            220 150 rmoveto
            -45 -45 45 110 110 45 45 45 45 45 -45 -110 -110 -45 -45 -45 hvcurveto
            20 -386 rmoveto
            return
          </CharString>
          <CharString index="49">
            21 -21 525 100 hstem
            80 100 vstem
            95 -93 callgsubr
            145 565 -105 callsubr
            endchar
          </CharString>
          <CharString index="50">
            -12 -35 callsubr
            475 -20 return
          </CharString>
          <CharString index="51">
            vhcurveto
            -15 hlineto
            return
          </CharString>
          <CharString index="52">
            60 15 rlineto
            10 -195 24 callsubr
            -190 -10 vlineto
            55 -15 rlineto
            -415 -150 415 -71 callsubr
            return
          </CharString>
          <CharString index="53">
            rmoveto
            -45 -20 -20 -15 vhcurveto
            -25 -15 25 hlineto
            25 20 -20 -55 -45 -25 -25 -35 -50 -24 25 25 15 8 10 25 hvcurveto
            11 40 rlineto
            0 -10 5 -10 -25 -20 -20 -35 -45 35 -35 70 85 40 40 45 75 -100 10 0 vhcurveto
            return
          </CharString>
          <CharString index="54">
            60 15 rlineto
            10 -210 -10 vlineto
            60 -15 return
          </CharString>
          <CharString index="55">
            25 -25 25 return
          </CharString>
          <CharString index="56">
            rmoveto
            -40 230 40 vlineto
            endchar
          </CharString>
          <CharString index="57">
            -90 -90 -155 return
          </CharString>
          <CharString index="58">
            -21 245 20 -20 230 return
          </CharString>
          <CharString index="59">
            rmoveto
            60 30 -60 0 hvcurveto
            10 callsubr
            -19 callsubr
            -45 -52 callgsubr
            55 vhcurveto
            return
          </CharString>
          <CharString index="60">
            -155 90 -90 return
          </CharString>
          <CharString index="61">
            0 -20 -20 -35 vvcurveto
            -90 70 -70 150 120 80 80 100 85 -55 56 -80 vhcurveto
            -160 hlineto
            return
          </CharString>
          <CharString index="62">
            55 -60 -110 30 return
          </CharString>
          <CharString index="63">
            hlineto
            0 -5 return
          </CharString>
          <CharString index="64">
            -55 15 rlineto
            340 -58 callgsubr
            10 callsubr
            -55 -15 rlineto
            -10 return
          </CharString>
          <CharString index="65">
            38 0 224 491 -20 return
          </CharString>
          <CharString index="66">
            -82 callgsubr
            rlineto
            10 return
          </CharString>
          <CharString index="67">
            80 -65 65 -145 vhcurveto
            -20 vmoveto
            75 45 -45 -80 -80 42 callsubr
            250 hlineto
            return
          </CharString>
          <CharString index="68">
            rmoveto
            170 vlineto
            -80 -55 rlineto
            -115 -85 -20 85 -320 vlineto
            -80 55 -55 85 vhcurveto
            return
          </CharString>
          <CharString index="69">
            vlineto
            165 95 95 120 120 -95 95 -165 hvcurveto
            return
          </CharString>
          <CharString index="70">
            35 -25 25 -50 vhcurveto
            35 -25 vlineto
            endchar
          </CharString>
          <CharString index="71">
            -14 callsubr
            200 90 return
          </CharString>
          <CharString index="72">
            6 -3 callsubr
            return
          </CharString>
          <CharString index="73">
            0 85 10 60 vvcurveto
            45 -35 35 -70 -65 -30 -30 -35 -10 5 -15 0 vhcurveto
            45 10 rlineto
            0 -5 10 15 vvcurveto
            25 15 15 25 25 20 -20 -45 vhcurveto
            endchar
          </CharString>
          <CharString index="74">
            0 -30 50 -75 -95 -36 callgsubr
            85 80 35 75 0 vhcurveto
            return
          </CharString>
          <CharString index="75">
            hstemhm
            40 90 -55 80 return
          </CharString>
          <CharString index="76">
            -65 30 -50 38 callgsubr
            40 40 vvcurveto
            55 5 -28 callgsubr
            return
          </CharString>
          <CharString index="77">
            23 callsubr
            -85 235 return
          </CharString>
          <CharString index="78">
            0 -56 callsubr
            return
          </CharString>
          <CharString index="79">
            0 -40 50 -65 -115 -120 -120 -245 -245 120 -120 110 105 100 100 180 vhcurveto
            75 -185 -20 100 vlineto
            return
          </CharString>
          <CharString index="80">
            222 222 -222 hlineto
            return
          </CharString>
          <CharString index="81">
            rlineto
            0 15 -5 15 return
          </CharString>
          <CharString index="82">
            55 vlineto
            36 34 25 0 hvcurveto
            10 vlineto
            0 -35 -10 -35 vhcurveto
            200 vlineto
            -70 -200 rmoveto
            -111 hlineto
            36 35 45 65 30 65 rrcurveto
            return
          </CharString>
          <CharString index="83">
            -240 245 -20 20 450 20 return
          </CharString>
          <CharString index="84">
            -62 callgsubr
            hstem
            return
          </CharString>
          <CharString index="85">
            -10 hlineto
            -35 return
          </CharString>
          <CharString index="86">
            -55 -15 rlineto
            -10 205 -98 callsubr
            return
          </CharString>
          <CharString index="87">
            -80 -35 -75 0 vhcurveto
            return
          </CharString>
          <CharString index="88">
            0 -35 -90 -65 return
          </CharString>
          <CharString index="89">
            5 45 0 vhcurveto
            -22 callsubr
            return
          </CharString>
          <CharString index="90">
            60 45 45 75 5 hvcurveto
            -15 hlineto
            -65 -5 -35 -35 -45 hhcurveto
            return
          </CharString>
          <CharString index="91">
            -77 callsubr
            -410 vlineto
            return
          </CharString>
          <CharString index="92">
            -155 20 -20 120 20 -17 callgsubr
            return
          </CharString>
          <CharString index="93">
            hstemhm
            45 90 return
          </CharString>
          <CharString index="94">
            -140 -10 return
          </CharString>
          <CharString index="95">
            51 -40 40 -79 -56 -41 -40 -50 -35 -52 callsubr
            10 10 5 0 vhcurveto
            -10 40 rlineto
            -25 -15 15 15 return
          </CharString>
          <CharString index="96">
            30 -1 callgsubr
            30 -20 20 -30 -10 -10 -5 0 hvcurveto
            return
          </CharString>
          <CharString index="97">
            700 rmoveto
            return
          </CharString>
          <CharString index="98">
            45 hlineto
            455 700 rlineto
            -45 hlineto
            return
          </CharString>
          <CharString index="99">
            -100 -50 callsubr
            return
          </CharString>
          <CharString index="100">
            -47 callsubr
            100 return
          </CharString>
          <CharString index="101">
            -80 -80 -95 -90 45 -45 55 15 15 5 0 vhcurveto
            -20 80 rlineto
            -65 -25 25 35 75 70 70 return
          </CharString>
          <CharString index="102">
            -124 -21 145 20 440 -20 hstem
            95 80 return
          </CharString>
          <CharString index="103">
            -47 -250 75 635 -20 return
          </CharString>
          <CharString index="104">
            -21 36 -21 return
          </CharString>
          <CharString index="105">
            95 -1 callgsubr
            30 20 -20 -35 -45 -35 -30 0 vhcurveto
            75 -30 rlineto
            0 35 30 45 vvcurveto
            return
          </CharString>
          <CharString index="106">
            -21 460 return
          </CharString>
          <CharString index="107">
            -35 -35 35 81 hvcurveto
            319 115 20 vlineto
            return
          </CharString>
          <CharString index="108">
            hstemhm
            50 65 185 40 -40 70 return
          </CharString>
          <CharString index="109">
            40 callsubr
            vstem
            return
          </CharString>
          <CharString index="110">
            95 -25 callgsubr
            return
          </CharString>
          <CharString index="111">
            -5 0 hvcurveto
            -15 return
          </CharString>
          <CharString index="112">
            -25 -20 20 35 return
          </CharString>
          <CharString index="113">
            hstem
            105 85 return
          </CharString>
          <CharString index="114">
            0 -5 30 return
          </CharString>
          <CharString index="115">
            10 vlineto
            15 callsubr
            return
          </CharString>
          <CharString index="116">
            -21 95 95 return
          </CharString>
          <CharString index="117">
            -300 vlineto
            return
          </CharString>
          <CharString index="118">
            235 475 rmoveto
            -8 callsubr
            return
          </CharString>
          <CharString index="119">
            -140 20 120 -20 return
          </CharString>
          <CharString index="120">
            rmoveto
            -30 25 -25 return
          </CharString>
          <CharString index="121">
            vhcurveto
            15 hlineto
            return
          </CharString>
          <CharString index="122">
            -60 15 rlineto
            650 vlineto
            -99 callsubr
            return
          </CharString>
          <CharString index="123">
            300 rmoveto
            -50 -100 -45 -65 -65 -60 rrcurveto
            160 -55 hlineto
            -40 -10 rlineto
            return
          </CharString>
          <CharString index="124">
            hlineto
            hintmask 10100000
            -51 -200 rlineto
            return
          </CharString>
          <CharString index="125">
            -15 rlineto
            -10 -195 10 vlineto
            return
          </CharString>
          <CharString index="126">
            0 20 660 20 return
          </CharString>
          <CharString index="127">
            21 -21 440 20 return
          </CharString>
          <CharString index="128">
            240 455 rmoveto
            return
          </CharString>
          <CharString index="129">
            350 rmoveto
            return
          </CharString>
          <CharString index="130">
            hstemhm
            105 85 return
          </CharString>
          <CharString index="131">
            -10 vlineto
            55 -15 rlineto
            -415 -150 415 vlineto
            55 15 rlineto
            10 return
          </CharString>
          <CharString index="132">
            90 -60 60 -80 -20 callsubr
            return
          </CharString>
          <CharString index="133">
            -85 -50 51 70 20 10 25 0 hvcurveto
            return
          </CharString>
          <CharString index="134">
            hlineto
            0 5 return
          </CharString>
          <CharString index="135">
            hstemhm
            95 80 return
          </CharString>
          <CharString index="136">
            95 65 -40 0 hvcurveto
            25 55 -25 55 rlineto
            0 -65 -40 -95 vhcurveto
            return
          </CharString>
          <CharString index="137">
            -10 200 -85 callsubr
            410 vlineto
            60 15 rlineto
            10 return
          </CharString>
          <CharString index="138">
            -15 hlineto
            -75 -10 -55 -55 -70 hhcurveto
            -35 callgsubr
            hvcurveto
            return
          </CharString>
          <CharString index="139">
            rmoveto
            30 hlineto
            hintmask 10111000
            100 120 rlineto
            -90 hlineto
            endchar
          </CharString>
          <CharString index="140">
            -134 -21 155 39 callsubr
            return
          </CharString>
          <CharString index="141">
            vlineto
            95 -60 60 -115 -65 -50 -35 0 vhcurveto
            return
          </CharString>
          <CharString index="142">
            35 10 rmoveto
            -10 200 -85 callsubr
            return
          </CharString>
          <CharString index="143">
            -63 callgsubr
            71 -21 return
          </CharString>
          <CharString index="144">
            -20 hstemhm
            75 -25 callgsubr
            return
          </CharString>
          <CharString index="145">
            hstemhm
            20 85 -65 35 -35 90 return
          </CharString>
          <CharString index="146">
            20 680 -20 6 callsubr
            return
          </CharString>
          <CharString index="147">
            -20 6 callsubr
            205 85 return
          </CharString>
          <CharString index="148">
            10 vlineto
            -55 15 rlineto
            return
          </CharString>
          <CharString index="149">
            -45 -45 -75 hvcurveto
            -35 return
          </CharString>
          <CharString index="150">
            -69 callsubr
            hstemhm
            return
          </CharString>
          <CharString index="151">
            170 40 -170 175 -40 -175 return
          </CharString>
        <CharString name=".notdef">
          -242 endchar
        </CharString>
        <CharString name="A">
          -42 callsubr
          hstem
          -106 callsubr
          endchar
        </CharString>
        <CharString name="AE">
          283 0 20 230 20 90 5 callgsubr
          hstemhm
          365 85 -85 235 50 65 hintmask 11111010
          710 -10 callsubr
          -365 hlineto
          -310 -665 -83 callgsubr
          100 215 rlineto
          210 -225 hlineto
          -46 callgsubr
          -10 415 vlineto
          -102 callgsubr
          -200 340 95 hlineto
          45 -90 rlineto
          hintmask 11110110
          -72 callgsubr
          hintmask 11111010
          -100 callsubr
          -345 -20 rmoveto
          -410 -201 vlineto
          192 410 rlineto
          endchar
        </CharString>
        <CharString name="Aacute">
          -42 callsubr
          76 -21 120 -20 hstemhm
          hintmask 11000000
          -106 callsubr
          hintmask 00110000
          115 526 -96 callsubr
        </CharString>
        <CharString name="Abreve">
          -42 callsubr
          55 105 hstemhm
          155 65 90 65 hintmask 11000000
          -106 callsubr
          hintmask 00111000
          130 541 -27 callgsubr
          15 0 hvcurveto
          -65 -44 callsubr
          -10 -15 vvcurveto
          -45 35 -35 75 75 35 35 45 15 -5 10 0 vhcurveto
          -65 27 callsubr
          -15 -20 vvcurveto
          -35 -20 -20 -25 vhcurveto
          endchar
        </CharString>
        <CharString name="Acircumflex">
          -42 callsubr
          76 -21 130 -20 hstemhm
          hintmask 11000000
          -106 callsubr
          hintmask 00110000
          127 586 rmoveto
          -94 callsubr
        </CharString>
        <CharString name="Adieresis">
          -42 callsubr
          50 100 hstemhm
          130 100 65 100 hintmask 11000000
          -106 callsubr
          hintmask 00111000
          95 571 -107 callsubr
        </CharString>
        <CharString name="Agrave">
          -42 callsubr
          76 -21 120 -20 hstemhm
          hintmask 11000000
          -106 callsubr
          hintmask 00110000
          112 646 -67 callgsubr
        </CharString>
        <CharString name="Amacron">
          -42 callsubr
          80 40 hstemhm
          hintmask 11000000
          -106 callsubr
          hintmask 00100000
          12 591 -51 callsubr
        </CharString>
        <CharString name="Aogonek">
          38 12 callsubr
          20 224 491 -20 hstemhm
          395 55 hintmask 00110000
          -106 callsubr
          hintmask 11001000
          260 -309 13 callsubr
          50 45 20 20 0 vhcurveto
          25 vlineto
          0 -20 -25 -25 -25 -15 15 20 45 90 40 0 vhcurveto
          -40 hlineto
          0 -105 -30 -55 vvcurveto
          endchar
        </CharString>
        <CharString name="Aring">
          38 0 224 466 20 5 -20 125 20 hstemhm
          182 45 70 45 hintmask 10100000
          -106 callsubr
          hintmask 01011100
          207 541 -88 callsubr
        </CharString>
        <CharString name="Atilde">
          -42 callsubr
          60 55 0 55 hstemhm
          165 205 hintmask 11000000
          -106 callsubr
          hintmask 00011000
          220 631 -90 callgsubr
          hintmask 00101000
          -68 callsubr
        </CharString>
        <CharString name="B">
          23 0 20 410 20 230 20 23 callsubr
          135 85 -25 25 -25 95 hintmask 11110010
          225 hmoveto
          155 100 100 125 205 -220 10 0 hvcurveto
          hintmask 11110100
          0 150 10 115 vvcurveto
          75 -60 60 -125 vhcurveto
          -180 -10 hlineto
          -62 callsubr
          -650 vlineto
          -46 callgsubr
          -10 vlineto
          180 430 rmoveto
          90 70 -70 -135 -135 -70 -70 -90 hvcurveto
          -35 410 hlineto
          250 vmoveto
          35 hlineto
          hintmask 11111000
          60 40 -40 -75 -75 -40 -39 -60 -1 hvcurveto
          -35 hlineto
          endchar
        </CharString>
        <CharString name="C">
          1 callgsubr
          hstemhm
          40 95 hintmask 11010000
          -73 callgsubr
          hintmask 10110000
          -81 callsubr
          -21 -10 -20 rrcurveto
          hintmask 11010000
          -92 callsubr
          endchar
        </CharString>
        <CharString name="Cacute">
          1 callgsubr
          86 -21 120 -20 hstemhm
          40 95 hintmask 11000100
          -73 callgsubr
          hintmask 10100100
          -81 callsubr
          -21 -10 -20 rrcurveto
          hintmask 11000100
          -92 callsubr
          hintmask 00011000
          -45 60 -96 callsubr
        </CharString>
        <CharString name="Ccaron">
          1 callgsubr
          81 -21 130 -20 hstemhm
          40 95 hintmask 11000100
          -73 callgsubr
          hintmask 10100100
          -81 callsubr
          -21 -10 -20 rrcurveto
          hintmask 11000100
          -92 callsubr
          hintmask 00011000
          -105 185 -97 callsubr
        </CharString>
        <CharString name="Ccedilla">
          8 -15 callsubr
          715 -17 callgsubr
          hstemhm
          40 95 160 55 hintmask 00101010
          -73 callgsubr
          hintmask 00100110
          -81 callsubr
          -21 -10 -20 rrcurveto
          hintmask 00101010
          -92 callsubr
          hintmask 10010001
          -35 -745 -79 callgsubr
          hintmask 01010001
          -37 callsubr
        </CharString>
        <CharString name="D">
          78 19 callsubr
          6 callsubr
          240 95 vstem
          -55 callgsubr
          endchar
        </CharString>
        <CharString name="Dcaron">
          78 19 callsubr
          70 -21 130 -20 23 callsubr
          240 95 hintmask 11001100
          -55 callgsubr
          hintmask 00110000
          -30 199 -97 callsubr
        </CharString>
        <CharString name="Dcroat">
          -74 callsubr
        </CharString>
        <CharString name="E">
          -63 callgsubr
          -30 callsubr
          40 65 hintmask 11110100
          -75 callsubr
          hintmask 11101100
          -72 callgsubr
          hintmask 11110100
          -100 callsubr
          -405 -10 hlineto
          -62 callsubr
          -650 vlineto
          -46 callgsubr
          -10 415 vlineto
          -102 callgsubr
          endchar
        </CharString>
        <CharString name="Eacute">
          36 callsubr
          120 -20 -30 callsubr
          40 65 hintmask 11100101
          -75 callsubr
          hintmask 11100011
          -72 callgsubr
          hintmask 11100101
          -100 callsubr
          -405 -10 hlineto
          -62 callsubr
          -650 vlineto
          -46 callgsubr
          -10 415 vlineto
          -102 callgsubr
          hintmask 00011000
          -143 730 -96 callsubr
        </CharString>
        <CharString name="Ecaron">
          36 callsubr
          130 -20 -30 callsubr
          40 65 hintmask 11100101
          -75 callsubr
          hintmask 11100011
          -72 callgsubr
          hintmask 11100101
          -100 callsubr
          -405 -10 hlineto
          -62 callsubr
          -650 vlineto
          -46 callgsubr
          -10 415 vlineto
          -102 callgsubr
          hintmask 00011000
          -205 860 -97 callsubr
        </CharString>
        <CharString name="Ecircumflex">
          -63 callgsubr
          77 -21 130 -20 -30 callsubr
          40 65 hintmask 11100101
          -75 callsubr
          hintmask 11100011
          -72 callgsubr
          hintmask 11100101
          -100 callsubr
          -405 -10 hlineto
          -62 callsubr
          -650 vlineto
          -46 callgsubr
          -10 415 vlineto
          -102 callgsubr
          hintmask 00011000
          -115 796 rmoveto
          -94 callsubr
        </CharString>
        <CharString name="Edieresis">
          -63 callgsubr
          60 100 -30 callsubr
          -200 100 65 100 -25 65 hintmask 1110100010000000
          -75 callsubr
          hintmask 1110010010000000
          -72 callgsubr
          hintmask 1110100010000000
          -100 callsubr
          -405 -10 hlineto
          -62 callsubr
          -650 vlineto
          -46 callgsubr
          -10 415 vlineto
          -102 callgsubr
          hintmask 0001001100000000
          -150 790 -107 callsubr
        </CharString>
        <CharString name="Edotaccent">
          -63 callgsubr
          55 100 -30 callsubr
          -108 100 48 65 hintmask 11101001
          -75 callsubr
          hintmask 11100101
          -72 callgsubr
          hintmask 11101001
          -100 callsubr
          -405 -10 hlineto
          -62 callsubr
          -650 vlineto
          -46 callgsubr
          -10 415 vlineto
          -102 callgsubr
          hintmask 00010010
          -58 785 -105 callsubr
          endchar
        </CharString>
        <CharString name="Egrave">
          36 callsubr
          120 -20 -30 callsubr
          40 65 hintmask 11100101
          -75 callsubr
          hintmask 11100011
          -72 callgsubr
          hintmask 11100101
          -100 callsubr
          -405 -10 hlineto
          -62 callsubr
          -650 vlineto
          -46 callgsubr
          -10 415 vlineto
          -102 callgsubr
          hintmask 00011000
          -133 850 -67 callgsubr
        </CharString>
        <CharString name="Emacron">
          -63 callgsubr
          85 40 -30 callsubr
          40 65 hintmask 11101010
          -75 callsubr
          hintmask 11100110
          -72 callgsubr
          hintmask 11101010
          -100 callsubr
          -405 -10 hlineto
          -62 callsubr
          -650 vlineto
          -46 callgsubr
          -10 415 vlineto
          -102 callgsubr
          hintmask 00010000
          -233 805 -51 callsubr
        </CharString>
        <CharString name="Eogonek">
          23 12 callsubr
          20 20 340 5 callgsubr
          -30 callsubr
          -145 55 130 65 hintmask 0011110010000000
          -75 callsubr
          hintmask 0011101010000000
          -72 callgsubr
          hintmask 0011110010000000
          -100 callsubr
          -405 -10 hlineto
          -62 callsubr
          -650 vlineto
          -46 callgsubr
          -10 415 vlineto
          -102 callgsubr
          hintmask 1100000100000000
          -195 -105 13 callsubr
          50 45 20 20 0 vhcurveto
          25 vlineto
          0 -20 -25 -25 -25 -15 15 20 45 90 40 0 vhcurveto
          -40 hlineto
          0 -105 -30 -55 vvcurveto
          endchar
        </CharString>
        <CharString name="Eth">
          -74 callsubr
        </CharString>
        <CharString name="Euro">
          48 -15 20 295 20 60 20 295 -17 callgsubr
          hstemhm
          82 94 hintmask 11110100
          10 380 rmoveto
          70 -60 -75 hlineto
          -5 -20 rlineto
          82 hlineto
          -212 15 112 -103 116 hhcurveto
          95 80 85 120 10 hvcurveto
          -15 hlineto
          -105 -10 -80 -80 -70 hhcurveto
          -80 -70 65 230 -9 hvcurveto
          175 hlineto
          4 20 rlineto
          -180 60 186 hlineto
          4 20 rlineto
          -189 hlineto
          229 9 70 66 70 hhcurveto
          -14 callgsubr
          hvcurveto
          15 -44 callsubr
          50 45 vvcurveto
          hintmask 11101100
          -81 callsubr
          -21 -10 -20 rrcurveto
          hintmask 11110100
          0 -40 51 -65 -107 -111 -104 -211 -15 vhcurveto
          -67 hlineto
          endchar
        </CharString>
        <CharString name="F">
          -2 21 -21 360 5 callgsubr
          -30 callsubr
          40 65 hintmask 11101100
          285 360 rmoveto
          45 -90 rlineto
          -72 callgsubr
          hintmask 11110100
          -100 callsubr
          -405 -10 hlineto
          -62 callsubr
          -650 vlineto
          -46 callgsubr
          -10 205 -85 callsubr
          335 vlineto
          endchar
        </CharString>
        <CharString name="G">
          43 -35 callsubr
          695 -17 callgsubr
          hstemhm
          45 95 255 85 hintmask 01101100
          -31 callgsubr
          hintmask 01011100
          -81 callsubr
          -20 -10 -20 rrcurveto
          hintmask 10101100
          -28 callsubr
          endchar
        </CharString>
        <CharString name="Gbreve">
          43 -35 callsubr
          695 -17 callgsubr
          70 105 hstemhm
          45 95 22 65 90 65 13 85 hintmask 0110010010000000
          395 320 rmoveto
          -100 20 185 -75 hlineto
          -180 -100 -100 -105 -110 -120 -20 callgsubr
          hintmask 0101010010000000
          245 120 120 115 65 40 -50 0 vhcurveto
          10 20 20 20 20 5 rrcurveto
          hintmask 1010010010000000
          15 -44 callsubr
          -50 -40 vvcurveto
          -45 5 -50 -29 callsubr
          110 -30 -55 60 -60 hhcurveto
          -75 -75 -75 -270 -275 75 -75 60 60 60 60 205 hvcurveto
          hintmask 0000101100000000
          -123 510 -27 callgsubr
          15 0 hvcurveto
          -65 -44 callsubr
          -10 -15 vvcurveto
          -45 35 -35 75 75 35 35 45 15 -5 10 0 vhcurveto
          -65 27 callsubr
          -15 -20 vvcurveto
          -35 -20 -20 -25 vhcurveto
          endchar
        </CharString>
        <CharString name="Gcommaaccent">
          43 -239 9 callsubr
          76 -3 callsubr
          695 -17 callgsubr
          hstemhm
          45 95 92 27 callgsubr
          63 85 hintmask 0001101001000000
          -31 callgsubr
          hintmask 0001011001000000
          -81 callsubr
          -20 -10 -20 rrcurveto
          hintmask 0010101001000000
          -28 callsubr
          hintmask 1100000100000000
          -113 -390 -95 callsubr
          hintmask 1100000010000000
          -103 callgsubr
          endchar
        </CharString>
        <CharString name="H">
          103 21 -21 360 20 320 45 callgsubr
          360 rmoveto
          -335 vlineto
          -46 callgsubr
          -10 205 8 callsubr
          -295 -205 295 vlineto
          -87 callgsubr
          335 vlineto
          endchar
        </CharString>
        <CharString name="I">
          -187 -23 callsubr
          105 85 vstem
          190 675 rmoveto
          -87 callgsubr
          endchar
        </CharString>
        <CharString name="Iacute">
          -187 -62 callgsubr
          91 -21 120 -20 23 callsubr
          hintmask 11001000
          190 675 rmoveto
          -87 callgsubr
          hintmask 00110000
          -58 725 -96 callsubr
        </CharString>
        <CharString name="Icircumflex">
          -187 -62 callgsubr
          96 -21 130 -20 23 callsubr
          hintmask 11001000
          190 675 rmoveto
          -87 callgsubr
          hintmask 00110000
          -40 790 rmoveto
          -94 callsubr
        </CharString>
        <CharString name="Idieresis">
          -187 -62 callgsubr
          80 100 hstemhm
          18 100 -13 85 -7 100 hintmask 11001000
          190 675 rmoveto
          -87 callgsubr
          hintmask 00110100
          -72 785 -107 callsubr
        </CharString>
        <CharString name="Idotaccent">
          -187 -62 callgsubr
          80 100 hstemhm
          100 100 -95 85 hintmask 11001000
          190 675 rmoveto
          -87 callgsubr
          hintmask 00110000
          10 785 -105 callsubr
          endchar
        </CharString>
        <CharString name="Igrave">
          -187 -62 callgsubr
          91 -21 120 -20 23 callsubr
          hintmask 11001000
          190 675 rmoveto
          -87 callgsubr
          hintmask 00110000
          -58 845 -67 callgsubr
        </CharString>
        <CharString name="Imacron">
          -187 -62 callgsubr
          105 40 23 callsubr
          hintmask 11010000
          190 675 rmoveto
          -87 callgsubr
          hintmask 00100000
          -158 800 -51 callsubr
        </CharString>
        <CharString name="Iogonek">
          -187 12 callsubr
          41 -76 callsubr
          hstemhm
          75 55 -25 85 hintmask 00110100
          190 675 rmoveto
          -87 callgsubr
          hintmask 11001000
          -115 -110 13 callsubr
          50 45 20 20 0 vhcurveto
          25 vlineto
          0 -20 -25 -25 -25 -15 15 20 45 90 40 0 vhcurveto
          -40 hlineto
          0 -105 -30 -55 vvcurveto
          endchar
        </CharString>
        <CharString name="Itilde">
          -187 -62 callgsubr
          80 55 0 55 hstemhm
          45 205 -145 85 hintmask 11000100
          190 675 rmoveto
          -87 callgsubr
          hintmask 00011000
          45 835 -90 callgsubr
          hintmask 00101000
          -68 callsubr
        </CharString>
        <CharString name="J">
          8 -26 callgsubr
          hstem
          15 50 250 85 vstem
          -78 callgsubr
          endchar
        </CharString>
        <CharString name="Jcircumflex">
          8 -26 callgsubr
          96 -21 130 -20 hstemhm
          15 50 250 85 hintmask 11001100
          -78 callgsubr
          hintmask 00110000
          -45 625 rmoveto
          -94 callsubr
        </CharString>
        <CharString name="K">
          58 -23 callsubr
          105 85 vstem
          247 358 rmoveto
          158 -333 -46 callgsubr
          -10 215 -98 callsubr
          -201 423 126 217 -99 callgsubr
          -215 -370 rlineto
          380 vlineto
          -87 callgsubr
          235 vlineto
          endchar
        </CharString>
        <CharString name="Kcommaaccent">
          58 -209 9 callsubr
          61 -76 callsubr
          23 callsubr
          50 27 callgsubr
          hintmask 00111000
          247 358 rmoveto
          158 -333 -46 callgsubr
          -10 215 -98 callsubr
          -201 423 126 217 -99 callgsubr
          -215 -370 rlineto
          380 vlineto
          -87 callgsubr
          235 vlineto
          hintmask 11000100
          100 -300 -95 callsubr
          hintmask 11000010
          -103 callgsubr
          endchar
        </CharString>
        <CharString name="L">
          -12 0 39 callsubr
          180 65 vstem
          -87 callsubr
          endchar
        </CharString>
        <CharString name="Lacute">
          -12 0 20 680 -20 91 -21 120 -20 23 callsubr
          180 65 hintmask 11001100
          -87 callsubr
          hintmask 00110000
          -55 730 -96 callsubr
        </CharString>
        <CharString name="Lcaron">
          -12 0 20 511 9 callsubr
          0 -20 23 callsubr
          105 27 callgsubr
          -25 65 hintmask 10011001
          -87 callsubr
          hintmask 01100100
          155 680 -95 callsubr
          hintmask 01100010
          -103 callgsubr
          endchar
        </CharString>
        <CharString name="Lcommaaccent">
          -12 -229 9 callsubr
          60 20 680 -20 23 callsubr
          25 27 callgsubr
          55 65 hintmask 00111001
          -87 callsubr
          hintmask 11000100
          75 -80 -95 callsubr
          hintmask 11000010
          -103 callgsubr
          endchar
        </CharString>
        <CharString name="Lslash">
          -12 0 20 680 -20 hstemhm
          45 145 -85 85 180 65 hintmask 11101000
          45 270 rmoveto
          -40 vlineto
          hintmask 11011000
          60 70 rlineto
          -275 vlineto
          hintmask 11101000
          -46 callgsubr
          -10 395 vlineto
          -102 callgsubr
          -180 378 hlineto
          70 82 rlineto
          40 vlineto
          -70 -82 rlineto
          237 vlineto
          60 15 rlineto
          10 -205 -10 vlineto
          hintmask 11011000
          -62 callsubr
          -335 vlineto
          endchar
        </CharString>
        <CharString name="M">
          -75 callgsubr
        </CharString>
        <CharString name="N">
          103 11 -21 31 -21 700 39 callgsubr
          hintmask 01111000
          -84 callgsubr
          hintmask 10111000
          -67 callsubr
          endchar
        </CharString>
        <CharString name="Nacute">
          103 11 -21 31 -76 callsubr
          91 -21 120 39 callgsubr
          hintmask 01100110
          -84 callgsubr
          hintmask 10100110
          -67 callsubr
          hintmask 00011000
          -183 85 -96 callsubr
        </CharString>
        <CharString name="Ncaron">
          103 11 -21 31 -76 callsubr
          76 -21 130 39 callgsubr
          hintmask 01100110
          -84 callgsubr
          hintmask 10100110
          -67 callsubr
          hintmask 00011000
          -248 200 -97 callsubr
        </CharString>
        <CharString name="Ncommaaccent">
          103 -199 9 callsubr
          41 -21 31 -76 callsubr
          hstemhm
          105 20 117 27 callgsubr
          118 20 hintmask 0001110010000000
          -84 callgsubr
          hintmask 0010110010000000
          -67 callsubr
          hintmask 1100001000000000
          -168 -695 -43 callgsubr
        </CharString>
        <CharString name="Ntilde">
          103 11 -21 31 -76 callsubr
          80 55 0 55 hstemhm
          105 20 65 205 65 20 hintmask 01100101
          -84 callgsubr
          hintmask 10100101
          -67 callsubr
          hintmask 00001010
          -80 195 -90 callgsubr
          hintmask 00010010
          -68 callsubr
        </CharString>
        <CharString name="O">
          68 43 callsubr
          40 95 280 95 hintmask 10011100
          -102 callsubr
          -95 hmoveto
          hintmask 01101100
          -94 callgsubr
          endchar
        </CharString>
        <CharString name="OE">
          283 0 20 340 5 callgsubr
          hstemhm
          35 95 235 85 -85 235 50 65 hintmask 11111010
          340 -10 callsubr
          -175 -130 -130 -220 -220 130 -130 175 hvcurveto
          380 hlineto
          -102 callgsubr
          -200 340 95 hlineto
          45 -90 rlineto
          hintmask 11110110
          -72 callgsubr
          hintmask 11111010
          -100 callsubr
          -345 -20 rmoveto
          -660 -25 vlineto
          -115 -95 95 235 235 95 95 115 hvcurveto
          endchar
        </CharString>
        <CharString name="Oacute">
          68 -69 callsubr
          82 -21 120 -20 hstemhm
          40 95 280 95 hintmask 10010011
          -102 callsubr
          -95 hmoveto
          hintmask 01100011
          -94 callgsubr
          hintmask 00001100
          -159 406 -96 callsubr
        </CharString>
        <CharString name="Ocircumflex">
          68 -69 callsubr
          81 -21 130 -20 hstemhm
          40 95 280 95 hintmask 10010011
          -102 callsubr
          -95 hmoveto
          hintmask 01100011
          -94 callgsubr
          hintmask 00001100
          -140 465 rmoveto
          -94 callsubr
        </CharString>
        <CharString name="Odieresis">
          68 -69 callsubr
          65 100 hstemhm
          40 95 7 100 65 100 8 95 hintmask 1001010010000000
          -102 callsubr
          -95 hmoveto
          hintmask 0110010010000000
          -94 callgsubr
          hintmask 0000101100000000
          -173 460 -107 callsubr
        </CharString>
        <CharString name="Ograve">
          68 -69 callsubr
          86 -21 120 -20 hstemhm
          40 95 280 95 hintmask 10010011
          -102 callsubr
          -95 hmoveto
          hintmask 01100011
          -94 callgsubr
          hintmask 00001100
          -155 530 -67 callgsubr
        </CharString>
        <CharString name="Ohungarumlaut">
          68 -69 callsubr
          65 120 hstemhm
          40 95 280 95 hintmask 10010110
          -102 callsubr
          -95 hmoveto
          hintmask 01100110
          -94 callgsubr
          hintmask 00001000
          -220 410 -72 callsubr
        </CharString>
        <CharString name="Omacron">
          68 -69 callsubr
          80 40 hstemhm
          40 95 280 95 hintmask 10010110
          -102 callsubr
          -95 hmoveto
          hintmask 01100110
          -94 callgsubr
          hintmask 00001000
          -255 465 -51 callsubr
        </CharString>
        <CharString name="Oslash">
          68 43 callsubr
          40 95 280 95 hintmask 01011100
          55 20 rmoveto
          30 -20 38 64 rlineto
          hintmask 10101100
          -53 43 55 -26 54 hhcurveto
          -60 callsubr
          109 -24 85 -37 60 hvcurveto
          46 76 -30 20 -39 -64 rlineto
          hintmask 01011100
          52 -43 -55 27 -53 hhcurveto
          -115 -120 -120 -245 -110 24 -84 36 -60 hvcurveto
          315 254 rmoveto
          -275 -75 -75 -65 -42 -46 31 94 -27 vhcurveto
          241 400 rlineto
          9 -46 5 -58 -71 vvcurveto
          -280 hmoveto
          hintmask 10101100
          275 75 75 65 41 46 -31 -94 27 vhcurveto
          -241 -400 rlineto
          -8 46 -5 58 71 vvcurveto
          endchar
        </CharString>
        <CharString name="Otilde">
          68 -69 callsubr
          75 55 0 55 hstemhm
          40 95 37 205 38 95 hintmask 1001001010000000
          -102 callsubr
          -95 hmoveto
          hintmask 0110001010000000
          -94 callgsubr
          hintmask 0000010100000000
          -53 520 -90 callgsubr
          hintmask 0000100100000000
          -68 callsubr
        </CharString>
        <CharString name="P">
          23 21 -21 250 20 410 20 6 callsubr
          200 95 vstem
          225 250 rmoveto
          165 95 95 130 130 -95 95 -165 hvcurveto
          -180 -10 hlineto
          -62 callsubr
          -650 vlineto
          -46 callgsubr
          -10 205 -85 callsubr
          225 vlineto
          430 vmoveto
          35 hlineto
          105 60 -60 -145 -145 -60 -60 -105 hvcurveto
          -35 hlineto
          endchar
        </CharString>
        <CharString name="Q">
          68 -145 145 -45 45 11 -21 710 -20 35 -20 hstemhm
          40 95 280 80 -65 65 -65 80 hintmask 0010110010000000
          510 22 callsubr
          -65 callsubr
          -115 -120 -120 -245 -215 95 -120 100 -25 vhcurveto
          -25 -35 -20 -25 -20 hvcurveto
          10 -10 rlineto
          hintmask 0100111000000000
          0 20 20 25 vhcurveto
          hintmask 1000110100000000
          60 10 -100 115 hhcurveto
          55 45 45 40 35 -25 25 0 hvcurveto
          -85 -5 rlineto
          6 -3 39 -21 -56 vvcurveto
          -35 -10 -10 -15 -27 -28 85 30 -50 vhcurveto
          hintmask 1000110010000000
          105 15 105 125 225 vvcurveto
          hintmask 1001011000000000
          -95 hmoveto
          -94 callgsubr
          endchar
        </CharString>
        <CharString name="R">
          68 -15 -23 callgsubr
          23 callsubr
          195 95 hintmask 01111100
          -79 callsubr
          hintmask 10111100
          -35 4 31 -30 45 hhcurveto
          55 20 45 0 hvcurveto
          -10 10 rlineto
          0 -15 -25 -15 -12 -10 10 25 -3 vhcurveto
          -20 175 rlineto
          -14 125 -156 10 0 0 10 callgsubr
          155 vvcurveto
          95 -80 80 -170 vhcurveto
          155 -175 rmoveto
          -100 -55 -55 -100 vhcurveto
          -40 310 40 hlineto
          100 55 -55 -100 hvcurveto
          endchar
        </CharString>
        <CharString name="Racute">
          68 -15 -23 callgsubr
          71 -21 120 -20 23 callsubr
          195 95 hintmask 01110011
          -79 callsubr
          hintmask 10110011
          -35 4 31 -30 45 hhcurveto
          55 20 45 0 hvcurveto
          -10 10 rlineto
          0 -15 -25 -15 -12 -10 10 25 -3 vhcurveto
          -20 175 rlineto
          -14 125 -156 10 0 0 10 callgsubr
          155 vvcurveto
          95 -80 80 -170 vhcurveto
          155 -175 rmoveto
          -100 -55 -55 -100 vhcurveto
          -40 310 40 hlineto
          100 55 -55 -100 hvcurveto
          hintmask 00001100
          -145 225 -96 callsubr
        </CharString>
        <CharString name="Rcaron">
          68 -15 -23 callgsubr
          66 -21 130 -20 23 callsubr
          195 95 hintmask 01110011
          -79 callsubr
          hintmask 10110011
          -35 4 31 -30 45 hhcurveto
          55 20 45 0 hvcurveto
          -10 10 rlineto
          0 -15 -25 -15 -12 -10 10 25 -3 vhcurveto
          -20 175 rlineto
          -14 125 -156 10 0 0 10 callgsubr
          155 vvcurveto
          95 -80 80 -170 vhcurveto
          155 -175 rmoveto
          -100 -55 -55 -100 vhcurveto
          -40 310 40 hlineto
          100 55 -55 -100 hvcurveto
          hintmask 00001100
          -210 350 -97 callsubr
        </CharString>
        <CharString name="Rcommaaccent">
          68 -209 9 callsubr
          25 -23 callgsubr
          23 callsubr
          65 27 callgsubr
          30 95 hintmask 0001111001000000
          -79 callsubr
          hintmask 0010111001000000
          -35 4 31 -30 45 hhcurveto
          55 20 45 0 hvcurveto
          -10 10 rlineto
          0 -15 -25 -15 -12 -10 10 25 -3 vhcurveto
          -20 175 rlineto
          -14 125 -156 10 0 0 10 callgsubr
          155 vvcurveto
          95 -80 80 -170 vhcurveto
          155 -175 rmoveto
          -100 -55 -55 -100 vhcurveto
          -40 310 40 hlineto
          100 55 -55 -100 hvcurveto
          hintmask 1100000100000000
          -80 -565 -95 callsubr
          hintmask 1100000010000000
          -103 callgsubr
          endchar
        </CharString>
        <CharString name="S">
          -86 callgsubr
        </CharString>
        <CharString name="Sacute">
          -15 callgsubr
          86 -21 120 -85 callgsubr
          87 185 -96 callsubr
        </CharString>
        <CharString name="Scaron">
          -15 callgsubr
          81 -21 130 -85 callgsubr
          30 310 -97 callsubr
        </CharString>
        <CharString name="Scedilla">
          -17 -15 callsubr
          31 13 callgsubr
          hstemhm
          45 65 142 55 63 30 -30 65 hintmask 0010010101000000
          110 570 -73 callsubr
          hintmask 0010001101000000
          -81 callsubr
          -20 -10 -20 rrcurveto
          hintmask 0010010100100000
          -90 callsubr
          hintmask 0000110101000000
          -66 callgsubr
          hintmask 0010010100100000
          -70 callgsubr
          hintmask 1001000010000000
          97 -620 -79 callgsubr
          hintmask 0101000010000000
          -37 callsubr
        </CharString>
        <CharString name="Scommaaccent">
          -17 -239 9 callsubr
          55 20 6 13 callgsubr
          hstemhm
          45 65 80 27 callgsubr
          80 30 -30 65 hintmask 1100000100000000
          240 -70 -95 callsubr
          hintmask 1100000010000000
          -103 callgsubr
          hintmask 0010101001000000
          -130 640 -73 callsubr
          hintmask 0010011001000000
          -81 callsubr
          -20 -10 -20 rrcurveto
          hintmask 0010101000100000
          -90 callsubr
          hintmask 0001101001000000
          -66 callgsubr
          hintmask 0010101000100000
          -70 callgsubr
          endchar
        </CharString>
        <CharString name="T">
          13 42 callgsubr
          hstem
          35 65 105 85 105 65 cntrmask 00111000
          -92 callgsubr
          endchar
        </CharString>
        <CharString name="Tcaron">
          13 42 callgsubr
          66 -21 130 -20 hstemhm
          35 65 105 85 105 65 cntrmask 00001110
          hintmask 11001110
          -92 callgsubr
          hintmask 00110000
          -130 850 -97 callsubr
        </CharString>
        <CharString name="Tcommaaccent">
          13 -229 9 callsubr
          81 -21 680 20 hstemhm
          35 65 100 100 -95 85 -20 30 95 65 hintmask 0011101010000000
          -92 callgsubr
          hintmask 1100010000000000
          -40 -85 -43 callgsubr
        </CharString>
        <CharString name="Thorn">
          92 0 100 -20 20 520 20 -20 80 23 callsubr
          255 95 hintmask 10101100
          190 640 rmoveto
          35 vlineto
          60 15 rlineto
          hintmask 10011100
          10 -205 -10 vlineto
          -62 callsubr
          -650 vlineto
          -46 callgsubr
          -10 205 -85 callsubr
          hintmask 01101100
          55 30 vlineto
          190 130 130 150 150 -130 130 -190 hvcurveto
          -30 -20 rmoveto
          30 hlineto
          135 90 -90 -170 -170 -90 -90 -135 hvcurveto
          -30 hlineto
          endchar
        </CharString>
        <CharString name="U">
          88 -26 callgsubr
          hstem
          21 callgsubr
          vstem
          -106 callgsubr
          endchar
        </CharString>
        <CharString name="Uacute">
          88 -26 callgsubr
          90 -21 120 -20 hstemhm
          21 callgsubr
          hintmask 11001100
          -106 callgsubr
          hintmask 00110000
          -200 549 -96 callsubr
        </CharString>
        <CharString name="Ucircumflex">
          88 -26 callgsubr
          101 -21 130 -20 hstemhm
          21 callgsubr
          hintmask 11001100
          -106 callgsubr
          hintmask 00110000
          -180 620 rmoveto
          -94 callsubr
        </CharString>
        <CharString name="Udieresis">
          88 -26 callgsubr
          80 100 hstemhm
          90 85 -3 100 65 100 28 20 hintmask 11010010
          -106 callgsubr
          hintmask 00101100
          -213 610 -107 callsubr
        </CharString>
        <CharString name="Ugrave">
          88 -26 callgsubr
          91 -21 120 -20 hstemhm
          21 callgsubr
          hintmask 11001100
          -106 callgsubr
          hintmask 00110000
          -185 670 -67 callgsubr
        </CharString>
        <CharString name="Uhungarumlaut">
          88 -26 callgsubr
          69 120 hstemhm
          21 callgsubr
          hintmask 11011000
          -106 callgsubr
          hintmask 00100000
          -255 549 -72 callsubr
        </CharString>
        <CharString name="Umacron">
          88 -26 callgsubr
          105 40 hstemhm
          21 callgsubr
          hintmask 11011000
          -106 callgsubr
          hintmask 00100000
          -295 625 -51 callsubr
        </CharString>
        <CharString name="Uogonek">
          88 18 callgsubr
          720 -20 hstemhm
          90 85 60 55 175 20 hintmask 01011010
          -106 callgsubr
          hintmask 10100100
          -250 -285 13 callsubr
          50 45 20 20 0 vhcurveto
          25 vlineto
          0 -20 -25 -25 -25 -15 15 20 45 90 40 0 vhcurveto
          -40 hlineto
          0 -105 -30 -55 vvcurveto
          endchar
        </CharString>
        <CharString name="Uring">
          88 -26 callgsubr
          65 20 110 20 hstemhm
          90 85 60 45 70 45 70 20 hintmask 11001001
          -106 callgsubr
          hintmask 00110110
          -90 620 -88 callsubr
        </CharString>
        <CharString name="V">
          23 6 -21 715 -20 hstem
          50 -6 callgsubr
          210 -690 rlineto
          15 hlineto
          185 680 -99 callgsubr
          -140 -515 -160 525 60 15 rlineto
          10 -210 -10 vlineto
          endchar
        </CharString>
        <CharString name="W">
          323 6 -21 715 -20 35 -20 hstemhm
          hintmask 11000000
          50 -6 callgsubr
          195 -690 rlineto
          15 hlineto
          145 560 165 -560 rlineto
          15 hlineto
          175 680 -99 callgsubr
          -131 -505 rlineto
          hintmask 10100000
          -164 555 rlineto
          -15 hlineto
          -145 -555 -145 515 60 15 rlineto
          hintmask 11000000
          10 -210 -10 vlineto
          endchar
        </CharString>
        <CharString name="X">
          13 -23 callsubr
          65 35 rmoveto
          -83 callgsubr
          135 271 130 -281 -46 callgsubr
          -10 215 -98 callsubr
          -175 379 130 261 -99 callgsubr
          -120 -240 -115 250 60 15 rlineto
          10 -215 -10 vlineto
          60 -15 161 -349 rlineto
          endchar
        </CharString>
        <CharString name="Y">
          8 -23 callsubr
          210 85 vstem
          445 -82 callsubr
          -138 -355 -142 365 -53 callsubr
          155 -400 rlineto
          -250 vlineto
          -46 callgsubr
          -10 205 -85 callsubr
          255 vlineto
          endchar
        </CharString>
        <CharString name="Yacute">
          8 -62 callgsubr
          90 -21 120 -20 hstemhm
          210 85 hintmask 11001000
          445 -82 callsubr
          -138 -355 -142 365 -53 callsubr
          155 -400 rlineto
          -250 vlineto
          -46 callgsubr
          -10 205 -85 callsubr
          255 vlineto
          hintmask 00110000
          -43 469 -96 callsubr
        </CharString>
        <CharString name="Ydieresis">
          8 -62 callgsubr
          96 100 hstemhm
          145 100 -35 85 15 100 hintmask 11001000
          445 -82 callsubr
          -138 -355 -142 365 -53 callsubr
          155 -400 rlineto
          -250 vlineto
          -46 callgsubr
          -10 205 -85 callsubr
          255 vlineto
          hintmask 00110100
          -50 546 -107 callsubr
        </CharString>
        <CharString name="Z">
          -22 19 callsubr
          hstem
          50 65 250 65 vstem
          435 -10 callsubr
          -390 hlineto
          -91 callgsubr
          220 hlineto
          -320 -680 rlineto
          420 hlineto
          -102 callgsubr
          -250 hlineto
          endchar
        </CharString>
        <CharString name="Zacute">
          -22 19 callsubr
          71 -21 120 -20 hstemhm
          50 65 250 65 hintmask 11001100
          435 -10 callsubr
          -390 hlineto
          -91 callgsubr
          220 hlineto
          -320 -680 rlineto
          420 hlineto
          -102 callgsubr
          -250 hlineto
          hintmask 00110000
          110 730 -96 callsubr
        </CharString>
        <CharString name="Zcaron">
          -22 19 callsubr
          70 -21 130 -20 hstemhm
          50 65 250 65 hintmask 11001100
          435 -10 callsubr
          -390 hlineto
          -91 callgsubr
          220 hlineto
          -320 -680 rlineto
          420 hlineto
          -102 callgsubr
          -250 hlineto
          hintmask 00110000
          35 859 -97 callsubr
        </CharString>
        <CharString name="Zdotaccent">
          -22 19 callsubr
          59 100 hstemhm
          50 65 70 100 80 65 hintmask 11010100
          435 -10 callsubr
          -390 hlineto
          -91 callgsubr
          220 hlineto
          -320 -680 rlineto
          420 hlineto
          -102 callgsubr
          -250 hlineto
          hintmask 00101000
          170 789 -105 callsubr
          endchar
        </CharString>
        <CharString name="a">
          -71 callgsubr
          -32 callsubr
          145 80 hintmask 10101010
          -105 callgsubr
          hintmask 01010110
          -103 callsubr
          endchar
        </CharString>
        <CharString name="aacute">
          -71 callgsubr
          61 -21 120 -20 -32 callsubr
          145 80 hintmask 1010001010000000
          -105 callgsubr
          hintmask 0101000110000000
          -103 callsubr
          hintmask 0000110000000000
          -25 55 -96 callsubr
        </CharString>
        <CharString name="abreve">
          -71 callgsubr
          45 105 -32 callsubr
          -35 65 90 65 -40 80 hintmask 1010010001000000
          -105 callgsubr
          hintmask 0101001001000000
          -103 callsubr
          hintmask 0000100110000000
          5 75 -27 callgsubr
          15 0 hvcurveto
          -65 -44 callsubr
          -10 -15 vvcurveto
          -45 35 -35 75 75 35 35 45 15 -5 10 0 vhcurveto
          -65 27 callsubr
          -15 -20 vvcurveto
          -35 -20 -20 -25 vhcurveto
          endchar
        </CharString>
        <CharString name="acircumflex">
          -71 callgsubr
          66 -21 130 -20 -32 callsubr
          145 80 hintmask 1010001010000000
          -105 callgsubr
          hintmask 0101000110000000
          -103 callsubr
          hintmask 0000110000000000
          5 120 rmoveto
          -94 callsubr
        </CharString>
        <CharString name="acute">
          -332 601 -21 120 -20 hstem
          10 580 -96 callsubr
        </CharString>
        <CharString name="adieresis">
          -71 callgsubr
          55 100 -32 callsubr
          -57 100 65 100 -63 80 hintmask 1010010001000000
          -105 callgsubr
          hintmask 0101001001000000
          -103 callsubr
          hintmask 0000100110000000
          -27 120 -107 callsubr
        </CharString>
        <CharString name="ae">
          213 -15 20 225 245 -32 callsubr
          145 85 180 90 hintmask 11011100
          655 230 rmoveto
          160 -85 85 -95 -90 -30 -90 0 0 -30 90 -100 -95 -55 -55 -55 -25 5 -10 0 vhcurveto
          80 20 rlineto
          0 -5 15 20 vvcurveto
          45 30 30 40 40 35 -35 -100 vhcurveto
          hintmask 11101100
          -70 vlineto
          -185 -75 -70 -75 -75 50 -50 95 120 40 90 0 0 30 -90 110 0 callgsubr
          -85 -80 rmoveto
          -95 -50 -50 -50 -35 -35 35 60 85 55 50 115 vhcurveto
          175 225 rmoveto
          -93 callsubr
          endchar
        </CharString>
        <CharString name="afii10017">
          -42 callsubr
          hstem
          229 555 rmoveto
          100 -331 rlineto
          -194 hlineto
          255 -199 rmoveto
          -46 callgsubr
          -10 210 -98 callsubr
          -210 690 rlineto
          -15 hlineto
          -195 -680 -83 callgsubr
          50 170 rlineto
          205 hlineto
          endchar
        </CharString>
        <CharString name="afii10018">
          33 0 20 410 20 230 20 23 callsubr
          150 65 -15 95 hintmask 11111000
          190 680 rmoveto
          150 hlineto
          -104 callsubr
          -365 -10 hlineto
          -62 callsubr
          -650 vlineto
          -46 callgsubr
          -10 180 vlineto
          hintmask 11110100
          165 95 95 130 130 -95 95 -165 hvcurveto
          -35 hlineto
          -20 vmoveto
          35 hlineto
          105 60 -60 -145 -145 -60 -60 -105 hvcurveto
          -35 hlineto
          endchar
        </CharString>
        <CharString name="afii10019">
          23 0 20 410 20 230 20 23 callsubr
          135 85 -25 25 -25 95 hintmask 11110010
          225 hmoveto
          155 100 100 125 205 -220 10 0 hvcurveto
          hintmask 11110100
          0 150 10 115 vvcurveto
          75 -60 60 -125 vhcurveto
          -180 -10 hlineto
          -62 callsubr
          -650 vlineto
          -46 callgsubr
          -10 vlineto
          180 430 rmoveto
          90 70 -70 -135 -135 -70 -70 -90 hvcurveto
          -35 410 hlineto
          250 vmoveto
          35 hlineto
          hintmask 11111000
          60 40 -40 -75 -75 -40 -39 -60 -1 hvcurveto
          -35 hlineto
          endchar
        </CharString>
        <CharString name="afii10020">
          -27 42 callgsubr
          6 callsubr
          170 65 vstem
          190 680 rmoveto
          170 hlineto
          -104 callsubr
          -385 -10 hlineto
          -62 callsubr
          -650 vlineto
          -46 callgsubr
          -10 205 -85 callsubr
          endchar
        </CharString>
        <CharString name="afii10021">
          63 -134 -21 155 20 660 20 hstemhm
          5 75 75 20 175 85 0 75 hintmask 11111010
          435 hmoveto
          -65 25 -55 45 -35 vhcurveto
          10 -44 callsubr
          50 40 vvcurveto
          45 5 40 0 vhcurveto
          -80 655 hlineto
          60 15 rlineto
          10 -405 -40 callgsubr
          -20 rlineto
          -240 vlineto
          -320 -85 -90 0 vhcurveto
          -70 27 callsubr
          -40 -45 vvcurveto
          -40 -5 -50 0 vhcurveto
          10 hlineto
          45 35 25 55 65 vvcurveto
          95 680 rmoveto
          hintmask 11111100
          175 -660 -255 hlineto
          0 80 90 320 vvcurveto
          endchar
        </CharString>
        <CharString name="afii10022">
          -63 callgsubr
          -30 callsubr
          40 65 hintmask 11110100
          -75 callsubr
          hintmask 11101100
          -72 callgsubr
          hintmask 11110100
          -100 callsubr
          -405 -10 hlineto
          -62 callsubr
          -650 vlineto
          -46 callgsubr
          -10 415 vlineto
          -102 callgsubr
          endchar
        </CharString>
        <CharString name="afii10023">
          -63 callgsubr
          60 100 -30 callsubr
          -205 100 65 100 -20 65 hintmask 1111100100000000
          -75 callsubr
          hintmask 1111010010000000
          -72 callgsubr
          hintmask 1111100010000000
          -100 callsubr
          -405 -10 hlineto
          -62 callsubr
          -650 vlineto
          -46 callgsubr
          -10 415 vlineto
          -102 callgsubr
          hintmask 1111001100000000
          -155 790 -107 callsubr
        </CharString>
        <CharString name="afii10024">
          293 21 -21 635 65 10 -20 hstemhm
          345 85 hintmask 11010000
          285 hmoveto
          205 10 hlineto
          -60 15 rlineto
          225 vlineto
          48 104 166 -329 -46 callgsubr
          -10 211 -98 callsubr
          -214 424 54 116 rlineto
          42 20 30 28 -49 callgsubr
          -380 vlineto
          -125 270 rlineto
          115 -53 -32 30 -40 hhcurveto
          -10 -15 4 callsubr
          -75 rlineto
          hintmask 11010000
          0 15 5 20 60 30 -28 -42 20 vhcurveto
          54 -116 -214 -424 -46 callgsubr
          -10 211 -98 callsubr
          166 329 48 -104 rlineto
          -225 vlineto
          -46 callgsubr
          endchar
        </CharString>
        <CharString name="afii10025">
          -17 -15 20 215 85 90 20 280 -17 callgsubr
          hstemhm
          20 20 275 85 -60 95 hintmask 11110110
          230 715 rmoveto
          -65 -40 -51 0 hvcurveto
          hintmask 11101110
          -2 callgsubr
          hintmask 11110110
          110 30 55 60 60 hhcurveto
          45 50 -50 -90 -90 -50 -50 -65 hvcurveto
          -30 -20 30 hlineto
          hintmask 11110101
          80 60 -60 -135 -135 -60 -60 -80 -90 -70 70 60 55 -16 callgsubr
          -105 -90 80 -80 110 130 95 95 120 195 -185 10 0 vhcurveto
          hintmask 11110110
          0 150 10 140 vvcurveto
          90 -70 70 -100 vhcurveto
          endchar
        </CharString>
        <CharString name="afii10026">
          103 21 -21 700 45 callgsubr
          540 rmoveto
          -515 vlineto
          -46 callgsubr
          -10 205 8 callsubr
          -95 vlineto
          -205 -410 rlineto
          505 vlineto
          -87 callgsubr
          105 vlineto
          endchar
        </CharString>
        <CharString name="afii10027">
          103 -62 callgsubr
          85 110 23 callsubr
          -10 70 90 70 -15 85 hintmask 11110010
          395 540 rmoveto
          -515 vlineto
          -46 callgsubr
          -10 205 8 callsubr
          -95 vlineto
          -205 -410 rlineto
          505 vlineto
          hintmask 11101100
          60 15 rlineto
          10 -205 -10 vlineto
          hintmask 11110100
          -62 callsubr
          -650 vlineto
          -46 callgsubr
          -10 vlineto
          hintmask 11101100
          205 10 hlineto
          hintmask 11110010
          -60 15 rlineto
          105 vlineto
          105 650 rmoveto
          hintmask 11101100
          -41 callgsubr
          endchar
        </CharString>
        <CharString name="afii10028">
          58 21 -21 635 65 10 -20 23 callsubr
          hintmask 11010000
          241 361 rmoveto
          168 -336 -46 callgsubr
          -10 211 -98 callsubr
          -215 430 50 110 rlineto
          40 18 32 30 -49 callgsubr
          -650 vlineto
          -46 callgsubr
          -10 205 -85 callsubr
          227 vlineto
          endchar
        </CharString>
        <CharString name="afii10029">
          53 -20 75 -34 -21 680 20 hstemhm
          140 20 185 85 hintmask 01111000
          160 680 rmoveto
          185 -655 hlineto
          -46 callgsubr
          -10 205 -85 callsubr
          650 30 callgsubr
          hintmask 10111000
          -9 callgsubr
          endchar
        </CharString>
        <CharString name="afii10030">
          -75 callgsubr
        </CharString>
        <CharString name="afii10031">
          103 21 -21 360 20 320 45 callgsubr
          360 rmoveto
          -335 vlineto
          -46 callgsubr
          -10 205 8 callsubr
          -295 -205 295 vlineto
          -87 callgsubr
          335 vlineto
          endchar
        </CharString>
        <CharString name="afii10032">
          68 43 callsubr
          40 95 280 95 hintmask 10011100
          -102 callsubr
          -95 hmoveto
          hintmask 01101100
          -94 callgsubr
          endchar
        </CharString>
        <CharString name="afii10033">
          103 42 callgsubr
          6 callsubr
          205 85 vstem
          190 25 rmoveto
          655 205 -655 vlineto
          -46 callgsubr
          -10 205 -85 callsubr
          650 vlineto
          60 15 rlineto
          10 -495 -10 vlineto
          -62 callsubr
          -650 vlineto
          -46 callgsubr
          -10 205 10 vlineto
          endchar
        </CharString>
        <CharString name="afii10034">
          23 21 -21 250 20 410 20 6 callsubr
          200 95 vstem
          225 250 rmoveto
          165 95 95 130 130 -95 95 -165 hvcurveto
          -180 -10 hlineto
          -62 callsubr
          -650 vlineto
          -46 callgsubr
          -10 205 -85 callsubr
          225 vlineto
          430 vmoveto
          35 hlineto
          105 60 -60 -145 -145 -60 -60 -105 hvcurveto
          -35 hlineto
          endchar
        </CharString>
        <CharString name="afii10035">
          1 callgsubr
          hstemhm
          40 95 hintmask 11010000
          -73 callgsubr
          hintmask 10110000
          -81 callsubr
          -21 -10 -20 rrcurveto
          hintmask 11010000
          -92 callsubr
          endchar
        </CharString>
        <CharString name="afii10036">
          13 42 callgsubr
          hstem
          35 65 105 85 105 65 cntrmask 00111000
          -92 callgsubr
          endchar
        </CharString>
        <CharString name="afii10037">
          8 -40 70 670 -20 hstem
          140 -6 callgsubr
          -53 callsubr
          208 -555 rlineto
          -55 -18 -35 -35 -85 hhcurveto
          -15 -15 5 0 hvcurveto
          15 -70 -26 callsubr
          65 41 40 120 37 vhcurveto
          167 545 -99 callgsubr
          -126 -413 rlineto
          endchar
        </CharString>
        <CharString name="afii10038">
          233 11 -21 720 -20 hstem
          25 95 195 85 195 95 cntrmask 00111000
          400 70 rmoveto
          170 10 120 120 160 vvcurveto
          160 -120 120 -170 10 vhcurveto
          35 vlineto
          -99 callsubr
          -35 vlineto
          -170 -10 -120 -120 -160 vvcurveto
          -160 120 -120 170 -10 vhcurveto
          -55 vlineto
          -46 callgsubr
          -10 205 -85 callsubr
          195 345 rmoveto
          -180 -80 -80 -115 -10 vhcurveto
          541 vlineto
          115 -10 80 -81 -180 vvcurveto
          -475 hmoveto
          180 80 81 115 10 vhcurveto
          -541 vlineto
          -115 10 -80 80 180 vvcurveto
          endchar
        </CharString>
        <CharString name="afii10039">
          18 -23 callsubr
          70 35 rmoveto
          -83 callgsubr
          135 271 130 -281 -46 callgsubr
          -10 215 -98 callsubr
          -175 379 130 261 -99 callgsubr
          -120 -240 -115 250 60 15 rlineto
          10 -215 -10 vlineto
          60 -15 161 -349 rlineto
          endchar
        </CharString>
        <CharString name="afii10040">
          103 33 callsubr
          205 85 15 75 vstem
          495 hmoveto
          -65 25 -55 45 -35 vhcurveto
          10 -44 callsubr
          50 40 vvcurveto
          45 5 40 0 vhcurveto
          -95 655 hlineto
          -99 callsubr
          -655 -205 655 vlineto
          -95 callgsubr
          vlineto
          endchar
        </CharString>
        <CharString name="afii10041">
          73 21 -21 290 20 390 -20 hstem
          75 85 205 85 vstem
          365 25 rmoveto
          -46 callgsubr
          -10 205 8 callsubr
          -330 vlineto
          0 -50 -35 -55 -60 -40 40 95 vhcurveto
          230 vlineto
          -99 callsubr
          -230 vlineto
          -95 60 -60 115 65 50 35 0 vhcurveto
          endchar
        </CharString>
        <CharString name="afii10042">
          333 0 39 callsubr
          175 85 175 85 cntrmask 00111000
          510 690 rmoveto
          10 -205 -10 vlineto
          -62 callsubr
          -655 -175 655 vlineto
          -95 callgsubr
          725 8 callsubr
          -655 -175 655 vlineto
          endchar
        </CharString>
        <CharString name="afii10043">
          333 33 callsubr
          175 85 175 85 15 75 vstem
          725 hmoveto
          -65 25 -55 45 -35 vhcurveto
          10 -44 callsubr
          50 40 vvcurveto
          45 5 40 0 vhcurveto
          -95 655 hlineto
          -99 callsubr
          -655 -175 655 vlineto
          -99 callsubr
          -655 -175 655 vlineto
          -95 callgsubr
          vlineto
          endchar
        </CharString>
        <CharString name="afii10044">
          98 0 20 390 20 250 20 hstem
          15 65 100 85 200 95 vstem
          265 430 rmoveto
          240 vlineto
          65 20 rlineto
          10 -320 vlineto
          -91 callgsubr
          100 -655 hlineto
          -46 callgsubr
          -10 180 -38 callsubr
          -35 -20 -61 callgsubr
        </CharString>
        <CharString name="afii10045">
          268 0 20 390 20 270 -20 6 callsubr
          200 95 85 85 vstem
          655 -6 callgsubr
          -87 callgsubr
          -465 405 -59 callgsubr
        </CharString>
        <CharString name="afii10046">
          23 0 20 390 20 270 -20 6 callsubr
          200 95 vstem
          190 430 -59 callgsubr
        </CharString>
        <CharString name="afii10047">
          34 callgsubr
          355 95 hintmask 11101000
          205 695 rmoveto
          75 70 -70 -255 5 hvcurveto
          -110 hlineto
          -45 90 rlineto
          -10 -200 10 hlineto
          45 90 rlineto
          110 hlineto
          -270 -75 -75 -85 -75 -75 85 100 -10 -56 callsubr
          -120 10 80 -85 95 hhcurveto
          125 120 120 245 -65 callsubr
          -65 -40 -51 0 hvcurveto
          hintmask 11011000
          -2 callgsubr
          hintmask 11101000
          110 30 55 60 60 hhcurveto
          endchar
        </CharString>
        <CharString name="afii10048">
          313 -35 callsubr
          340 20 340 -20 35 -20 23 callsubr
          95 95 280 95 hintmask 01110111
          190 675 rmoveto
          -87 callgsubr
          315 95 vlineto
          hintmask 10101111
          -235 120 -120 115 -60 callsubr
          -65 callsubr
          -115 -115 -115 -240 -5 vhcurveto
          -95 hlineto
          470 -10 rmoveto
          hintmask 01110111
          -94 callgsubr
          endchar
        </CharString>
        <CharString name="afii10049">
          68 -15 -23 callgsubr
          hstemhm
          70 95 195 85 hintmask 10111100
          320 -10 callsubr
          -170 -80 -80 -95 -155 195 -10 0 hvcurveto
          0 -156 -10 -14 -125 vhcurveto
          -20 -175 rlineto
          -25 -3 -10 -10 -12 hhcurveto
          -15 -15 25 0 hvcurveto
          -10 -10 rlineto
          0 20 -45 55 45 31 30 35 4 vhcurveto
          20 175 rlineto
          90 10 35 35 90 hhcurveto
          40 -325 hlineto
          -46 callgsubr
          hintmask 01111100
          -10 205 -85 callsubr
          650 vlineto
          60 15 rlineto
          10 vlineto
          -340 -175 rmoveto
          100 55 55 100 vhcurveto
          40 -310 -40 hlineto
          -100 -55 55 100 hvcurveto
          endchar
        </CharString>
        <CharString name="afii10050">
          -42 42 callgsubr
          120 -20 6 callsubr
          vstem
          430 680 rmoveto
          7 callsubr
          40 vvcurveto
          25 -18 callsubr
          -30 -25 -45 -45 vvcurveto
          -315 -10 hlineto
          -62 callsubr
          -650 vlineto
          -46 callgsubr
          -10 205 -85 callsubr
          655 vlineto
          endchar
        </CharString>
        <CharString name="afii10051">
          98 -69 -21 111 15 callgsubr
          455 60 rmoveto
          -100 -35 -35 -39 vhcurveto
          -15 vlineto
          99 60 60 90 hvcurveto
          195 34 callsubr
          305 85 vlineto
          -104 callsubr
          -395 hlineto
          -91 callgsubr
          85 -655 hlineto
          -46 callgsubr
          -10 205 -85 callsubr
          330 vlineto
          0 50 35 55 60 40 -40 -95 vhcurveto
          endchar
        </CharString>
        <CharString name="afii10052">
          -27 42 callgsubr
          -20 180 23 callsubr
          170 65 hintmask 11011000
          190 680 rmoveto
          170 hlineto
          -104 callsubr
          -385 -10 hlineto
          -62 callsubr
          -650 vlineto
          -46 callgsubr
          -10 205 -85 callsubr
          45 715 32 callsubr
        </CharString>
        <CharString name="afii10053">
          34 callgsubr
          40 95 hintmask 11101000
          -73 callgsubr
          hintmask 11011000
          -81 callsubr
          -21 -10 -20 rrcurveto
          hintmask 11101000
          0 -40 51 -65 -115 -120 -120 -245 -245 120 -120 125 95 80 85 120 10 -56 callsubr
          -100 -10 -75 -85 -75 hhcurveto
          -85 -75 75 270 hvcurveto
          110 hlineto
          45 -90 rlineto
          -72 callgsubr
          -110 hlineto
          255 5 70 70 75 hhcurveto
          endchar
        </CharString>
        <CharString name="afii10054">
          -86 callgsubr
        </CharString>
        <CharString name="afii10055">
          -187 -23 callsubr
          105 85 vstem
          190 675 rmoveto
          -87 callgsubr
          endchar
        </CharString>
        <CharString name="afii10056">
          -187 -62 callgsubr
          80 100 hstemhm
          20 100 -15 85 -15 100 hintmask 00110100
          120 810 -105 callsubr
          155 -97 callgsubr
          hintmask 11001000
          -85 -135 rmoveto
          -87 callgsubr
          endchar
        </CharString>
        <CharString name="afii10057">
          8 -26 callgsubr
          hstem
          15 50 250 85 vstem
          -78 callgsubr
          endchar
        </CharString>
        <CharString name="afii10058">
          263 -20 75 -55 20 390 20 250 20 hstemhm
          140 20 185 85 200 95 hintmask 10111110
          430 430 rmoveto
          245 30 callgsubr
          -9 callgsubr
          250 185 -655 vlineto
          -46 callgsubr
          hintmask 01111110
          -10 205 vlineto
          149 9 86 92 114 vvcurveto
          120 -95 95 -165 vhcurveto
          -35 -20 -61 callgsubr
        </CharString>
        <CharString name="afii10059">
          313 0 20 370 20 290 -20 6 callsubr
          195 85 210 95 vstem
          470 410 rmoveto
          265 vlineto
          -99 callsubr
          -265 -195 265 vlineto
          -87 callgsubr
          365 195 -365 vlineto
          -46 callgsubr
          -10 190 vlineto
          165 95 95 110 110 -95 95 -165 hvcurveto
          -45 -20 rmoveto
          45 hlineto
          105 60 -60 -125 -125 -60 -60 -105 hvcurveto
          -45 hlineto
          endchar
        </CharString>
        <CharString name="afii10060">
          138 21 15 callgsubr
          250 680 rmoveto
          85 hlineto
          -104 callsubr
          -395 hlineto
          -91 callgsubr
          85 -655 hlineto
          -46 callgsubr
          -10 205 -85 callsubr
          330 vlineto
          0 50 35 55 60 40 -40 -95 vhcurveto
          -230 vlineto
          -46 callgsubr
          -10 205 -85 callsubr
          230 34 callsubr
          endchar
        </CharString>
        <CharString name="afii10061">
          58 21 -21 635 65 10 -20 71 -21 120 -20 23 callsubr
          hintmask 00011000
          250 740 rmoveto
          30 hlineto
          100 120 rlineto
          -90 hlineto
          hintmask 11000100
          -49 -499 rmoveto
          168 -336 -46 callgsubr
          -10 211 -98 callsubr
          -215 430 50 110 rlineto
          40 18 32 30 60 hhcurveto
          20 15 4 callsubr
          75 rlineto
          hintmask 10100100
          0 -15 5 -10 -40 -32 -30 -115 -53 vhcurveto
          -125 -270 41 callgsubr
          hintmask 11000100
          10 -205 vlineto
          hintmask 10100100
          -10 vlineto
          -62 callsubr
          -650 vlineto
          -46 callgsubr
          -10 205 -85 callsubr
          227 vlineto
          endchar
        </CharString>
        <CharString name="afii10062">
          8 -40 70 670 -20 75 110 hstemhm
          161 70 90 70 hintmask 00111000
          276 770 rmoveto
          -41 callgsubr
          hintmask 11000000
          -136 -95 rmoveto
          -53 callsubr
          208 -555 rlineto
          -55 -18 -35 -35 -85 hhcurveto
          -15 -15 5 0 hvcurveto
          15 -70 -26 callsubr
          65 41 40 120 37 vhcurveto
          167 545 -99 callgsubr
          -126 -413 rlineto
          endchar
        </CharString>
        <CharString name="afii10065">
          -71 callgsubr
          -32 callsubr
          145 80 hintmask 10101010
          -105 callgsubr
          hintmask 01010110
          -103 callsubr
          endchar
        </CharString>
        <CharString name="afii10066">
          -22 -35 callsubr
          425 20 275 -20 hstemhm
          45 40 -40 90 200 75 -75 90 hintmask 10111010
          235 445 rmoveto
          -105 -45 -115 0 hvcurveto
          260 325 -120 250 vvcurveto
          -15 hlineto
          -45 -140 -305 80 -350 vvcurveto
          -85 vlineto
          -150 90 -90 100 vhcurveto
          hintmask 01110101
          100 90 90 140 140 -90 90 -100 hvcurveto
          -100 -230 rmoveto
          155 55 55 45 45 55 -55 -155 -160 -55 -55 -45 -45 -55 55 160 vhcurveto
          endchar
        </CharString>
        <CharString name="afii10067">
          -32 0 20 230 20 170 20 28 callsubr
          125 80 -50 50 -50 90 hintmask 11110010
          35 hmoveto
          175 hlineto
          145 65 65 70 115 -175 10 0 hvcurveto
          hintmask 11111000
          0 135 10 85 vvcurveto
          55 -50 50 -120 vhcurveto
          -175 -10 hlineto
          -62 callsubr
          -410 vlineto
          -46 callgsubr
          175 430 rmoveto
          60 30 -30 -55 -55 -30 -30 -60 hvcurveto
          -35 170 hlineto
          -190 vmoveto
          35 hlineto
          hintmask 11110100
          75 45 -45 -70 -70 42 callsubr
          hlineto
          endchar
        </CharString>
        <CharString name="afii10068">
          -82 20 callsubr
          hstem
          95 80 130 65 vstem
          305 440 rmoveto
          -53 callgsubr
          -340 -10 hlineto
          -81 callgsubr
          415 vlineto
          endchar
        </CharString>
        <CharString name="afii10069">
          3 -124 -21 145 20 420 20 hstemhm
          5 70 70 20 135 80 0 70 hintmask 11111010
          20 vmoveto
          0 5 -30 -55 vvcurveto
          -40 -5 -40 -56 callgsubr
          30 30 50 65 vvcurveto
          305 hlineto
          -31 callsubr
          -75 415 hlineto
          60 15 rlineto
          10 -360 -40 callgsubr
          -20 rlineto
          -130 vlineto
          -190 -81 -90 0 vhcurveto
          25 hmoveto
          0 76 90 190 vvcurveto
          140 vlineto
          hintmask 11111100
          135 -420 hlineto
          endchar
        </CharString>
        <CharString name="afii10070">
          -63 callsubr
          -14 callsubr
          180 90 hintmask 10111000
          -104 callgsubr
          90 230 rmoveto
          hintmask 11011000
          -93 callsubr
          endchar
        </CharString>
        <CharString name="afii10071">
          -63 callsubr
          -15 160 -100 100 -14 callsubr
          -40 100 65 100 -45 90 hintmask 1010110010000000
          -104 callgsubr
          hintmask 1101010010000000
          90 230 rmoveto
          -93 callsubr
          hintmask 1100101100000000
          -30 110 -107 callsubr
        </CharString>
        <CharString name="afii10072">
          178 21 -21 400 70 hstem
          290 80 vstem
          230 450 rmoveto
          -62 callsubr
          -255 vlineto
          -90 160 rlineto
          110 -62 -18 20 -35 hhcurveto
          -10 -15 4 callsubr
          -70 rlineto
          0 20 5 15 55 23 -20 -40 22 vhcurveto
          28 -50 -163 -265 -46 callgsubr
          -10 201 10 vlineto
          -55 15 118 192 41 -72 rlineto
          -120 vlineto
          -55 -15 rlineto
          -10 190 41 callsubr
          120 vlineto
          41 72 118 -192 -55 -15 rlineto
          -10 201 -98 callsubr
          -163 265 28 50 rlineto
          40 22 23 20 55 hhcurveto
          15 20 4 callsubr
          70 rlineto
          0 -15 5 -10 -35 -18 -20 -110 -62 vhcurveto
          -90 -160 rlineto
          255 vlineto
          60 15 rlineto
          10 -200 vlineto
          endchar
        </CharString>
        <CharString name="afii10073">
          -82 -15 20 135 70 35 20 190 20 hstemhm
          25 20 220 80 -65 65 -65 90 hintmask 11111001
          170 5 rmoveto
          -75 -50 50 35 30 20 20 45 hvcurveto
          20 65 rlineto
          0 -10 5 -20 -40 -35 -35 -65 -65 60 -60 95 125 65 65 75 120 -160 10 0 vhcurveto
          hintmask 11111100
          0 135 10 95 vvcurveto
          60 -55 55 -85 -65 -35 -50 0 vhcurveto
          -18 callgsubr
          35 35 -35 -60 -60 -35 -35 -60 hvcurveto
          -20 -20 20 hlineto
          hintmask 11111010
          65 45 -45 -75 -75 -45 -45 -65 hvcurveto
          endchar
        </CharString>
        <CharString name="afii10074">
          43 21 -34 callgsubr
          hstem
          3 callsubr
          vstem
          350 435 rmoveto
          -45 vlineto
          -175 -270 rlineto
          315 -71 callsubr
          -10 10 callgsubr
          vlineto
          -55 15 rlineto
          60 vlineto
          175 270 rlineto
          -330 -5 callgsubr
          410 vlineto
          60 15 rlineto
          10 -195 -10 vlineto
          endchar
        </CharString>
        <CharString name="afii10075">
          43 21 -21 520 105 28 callsubr
          -20 65 90 65 -25 80 hintmask 11011000
          265 535 -27 callgsubr
          15 0 hvcurveto
          -65 -44 callsubr
          -10 -15 vvcurveto
          -45 35 -35 75 75 35 35 45 15 -5 10 0 vhcurveto
          -65 27 callsubr
          -15 -20 vvcurveto
          -35 -20 -20 -25 vhcurveto
          hintmask 11100100
          85 -100 rmoveto
          -45 vlineto
          -175 -270 rlineto
          315 -71 callsubr
          -10 10 callgsubr
          vlineto
          -55 15 rlineto
          60 vlineto
          175 270 rlineto
          -330 -5 callgsubr
          410 vlineto
          60 15 rlineto
          10 -195 -10 vlineto
          endchar
        </CharString>
        <CharString name="afii10076">
          -12 21 -21 400 60 10 -20 28 callsubr
          hintmask 11010000
          338 25 rmoveto
          -55 -15 rlineto
          -10 202 -98 callsubr
          -165 271 25 44 rlineto
          40 23 22 20 55 hhcurveto
          hintmask 10110000
          15 20 4 callsubr
          70 rlineto
          hintmask 11010000
          0 -10 5 -15 -35 -18 -20 -110 -62 vhcurveto
          -90 -160 rlineto
          255 vlineto
          65 15 rlineto
          hintmask 10110000
          10 -205 -10 vlineto
          -62 callsubr
          -410 -60 callgsubr
          120 vlineto
          44 76 rlineto
          endchar
        </CharString>
        <CharString name="afii10077">
          -22 -20 70 -29 -21 440 20 hstemhm
          120 20 145 80 hintmask 10111000
          55 450 rmoveto
          -39 callgsubr
          hintmask 01111000
          30 callsubr
          -370 vlineto
          endchar
        </CharString>
        <CharString name="afii10078">
          158 6 -21 36 -34 callgsubr
          hstemhm
          90 20 355 80 hintmask 01111000
          25 450 rmoveto
          65 -20 rlineto
          -395 vlineto
          -83 callgsubr
          rlineto
          355 vlineto
          hintmask 10111000
          184 -405 rlineto
          15 hlineto
          156 405 rlineto
          -365 vlineto
          -55 -15 rlineto
          hintmask 01111000
          -10 195 -85 callsubr
          410 vlineto
          60 15 rlineto
          10 -135 vlineto
          -140 -363 -165 363 rlineto
          -140 hlineto
          endchar
        </CharString>
        <CharString name="afii10079">
          38 0 250 -20 20 -20 230 28 callsubr
          170 80 hintmask 10011000
          345 435 rmoveto
          -185 -170 185 vlineto
          55 15 rlineto
          hintmask 00111000
          -66 callsubr
          hintmask 10011000
          -10 195 41 callsubr
          hintmask 01011000
          205 170 -205 vlineto
          -55 -15 rlineto
          hintmask 10011000
          -10 195 -85 callsubr
          410 vlineto
          60 15 rlineto
          hintmask 00111000
          10 -195 -10 vlineto
          endchar
        </CharString>
        <CharString name="afii10080">
          -57 callsubr
          -14 callsubr
          200 90 hintmask 01111000
          -98 callgsubr
          hintmask 10111000
          -80 callgsubr
          vhcurveto
          endchar
        </CharString>
        <CharString name="afii10081">
          38 20 callsubr
          hstem
          95 80 170 80 vstem
          35 450 rmoveto
          -62 callsubr
          -410 -60 callgsubr
          415 170 -415 -5 callgsubr
          410 vlineto
          60 15 rlineto
          10 -450 vlineto
          endchar
        </CharString>
        <CharString name="afii10082">
          -76 callgsubr
        </CharString>
        <CharString name="afii10083">
          -52 -15 20 450 20 hstem
          45 90 vstem
          -100 callgsubr
          -60 -52 callgsubr
          50 hvcurveto
          endchar
        </CharString>
        <CharString name="afii10084">
          -42 20 callsubr
          hstem
          35 65 80 80 80 65 cntrmask 00111000
          410 460 rmoveto
          -380 27 callsubr
          -30 -45 vvcurveto
          -30 -5 -45 -56 callgsubr
          30 25 45 55 vvcurveto
          80 -415 hlineto
          -46 callgsubr
          -10 200 -85 callsubr
          415 80 vlineto
          -53 callgsubr
          endchar
        </CharString>
        <CharString name="afii10085">
          -4 callsubr
          hstem
          385 425 -77 callgsubr
          -103 -309 -127 319 -30 callgsubr
          173 -435 -28 -85 rlineto
          -60 -20 -30 -30 -80 hhcurveto
          -15 -15 5 0 hvcurveto
          15 -75 -26 callsubr
          55 38 40 125 42 vhcurveto
          endchar
        </CharString>
        <CharString name="afii10086">
          208 -24 callsubr
          -20 245 -14 callsubr
          170 80 170 90 cntrmask 00001110
          hintmask 10101110
          460 5 rmoveto
          -45 -30 50 0 hvcurveto
          325 vlineto
          0 35 75 50 35 50 -50 -175 -175 -50 -50 -45 vhcurveto
          -230 hmoveto
          -45 -50 50 175 175 50 50 35 50 35 -75 0 hvcurveto
          -325 vlineto
          0 -30 -50 -45 vhcurveto
          75 410 rmoveto
          0 -35 60 -65 -75 -85 -85 -160 vhcurveto
          hintmask 01101110
          -160 85 -85 85 60 30 40 0 vhcurveto
          -240 vlineto
          -46 callgsubr
          hintmask 10101110
          -10 200 -85 callsubr
          240 vlineto
          hintmask 01101110
          0 30 -40 60 85 85 85 160 160 -85 85 -75 -65 -35 -60 0 vhcurveto
          hintmask 10011110
          285 -77 callsubr
          endchar
        </CharString>
        <CharString name="afii10087">
          -57 21 -34 callgsubr
          hstem
          285 25 rmoveto
          -21 callsubr
          -138 240 103 160 -99 callgsubr
          -92 -144 -88 154 55 15 rlineto
          10 -205 -10 vlineto
          60 -15 130 -228 -110 -172 -83 callgsubr
          100 156 rlineto
          endchar
        </CharString>
        <CharString name="afii10088">
          38 -5 callsubr
          170 80 10 70 vstem
          425 20 rmoveto
          415 vlineto
          60 15 rlineto
          10 -195 -10 vlineto
          55 -15 rlineto
          -415 -170 415 -71 callsubr
          -10 400 vlineto
          -31 callsubr
          endchar
        </CharString>
        <CharString name="afii10089">
          13 0 190 -20 20 270 -20 hstemhm
          75 80 165 80 hintmask 10111000
          320 25 rmoveto
          -46 callgsubr
          30 callsubr
          -195 -10 vlineto
          55 -15 rlineto
          -220 vlineto
          0 -45 -25 -40 -50 -30 30 70 vhcurveto
          145 vlineto
          55 15 rlineto
          10 -195 -10 vlineto
          -62 callsubr
          -145 vlineto
          hintmask 01111000
          -65 55 -55 95 50 45 25 0 vhcurveto
          endchar
        </CharString>
        <CharString name="afii10090">
          248 0 20 440 -20 hstem
          95 80 150 80 150 80 cntrmask 00111000
          35 hmoveto
          660 10 hlineto
          -60 15 rlineto
          410 vlineto
          -55 callsubr
          endchar
        </CharString>
        <CharString name="afii10091">
          248 -5 callsubr
          150 80 150 80 10 70 vstem
          645 hmoveto
          -31 callsubr
          -85 415 hlineto
          -55 callsubr
          -10 vlineto
          endchar
        </CharString>
        <CharString name="afii10092">
          8 0 20 250 20 150 20 hstem
          15 65 70 80 155 90 vstem
          265 270 rmoveto
          75 45 -45 -80 -80 42 callsubr
          250 hlineto
          -220 190 rmoveto
          0 5 -30 -45 vvcurveto
          -30 -5 -45 -56 callgsubr
          30 25 45 55 vvcurveto
          70 -415 hlineto
          -46 callgsubr
          -10 175 vlineto
          145 65 65 80 80 -65 65 -145 hvcurveto
          -35 140 hlineto
          65 20 rlineto
          10 vlineto
          endchar
        </CharString>
        <CharString name="afii10093">
          188 32 callgsubr
          75 80 hintmask 11011100
          175 290 rmoveto
          145 vlineto
          60 15 rlineto
          hintmask 10111100
          -12 callgsubr
          hintmask 11011100
          -40 callsubr
          400 165 rmoveto
          60 15 rlineto
          hintmask 10111100
          10 -200 -10 vlineto
          -81 callgsubr
          endchar
        </CharString>
        <CharString name="afii10094">
          -47 32 callgsubr
          hintmask 11011000
          175 290 rmoveto
          145 vlineto
          60 15 rlineto
          hintmask 10111000
          -12 callgsubr
          hintmask 11011000
          -40 callsubr
          endchar
        </CharString>
        <CharString name="afii10095">
          -52 -15 20 215 20 215 20 hstemhm
          165 220 -90 90 cntrmask 11100000
          hintmask 11101000
          190 455 rmoveto
          49 54 -53 -162 2 hvcurveto
          -85 hlineto
          -35 80 rlineto
          hintmask 11110000
          -10 -180 10 hlineto
          35 80 rlineto
          hintmask 11101000
          85 hlineto
          -162 -2 -54 -53 -59 hhcurveto
          -70 -55 55 75 -10 hvcurveto
          -15 hlineto
          -85 10 65 -65 85 hhcurveto
          105 90 90 155 155 -90 90 -95 -65 -35 -50 0 hvcurveto
          -18 callgsubr
          endchar
        </CharString>
        <CharString name="afii10096">
          198 0 245 -239 -21 240 20 -20 235 15 -20 28 callsubr
          80 90 200 90 hintmask 10001111
          445 475 rmoveto
          -95 -90 -85 -145 -5 hvcurveto
          -80 190 hlineto
          60 15 rlineto
          hintmask 01010111
          10 -200 -10 vlineto
          -62 callsubr
          -410 vlineto
          -46 callgsubr
          hintmask 10001111
          -10 200 -85 callsubr
          hintmask 01101111
          200 80 vlineto
          -150 90 -90 100 100 90 90 155 155 -90 90 -100 vhcurveto
          hintmask 01010111
          -15 vmoveto
          45 55 -55 -175 hvcurveto
          hintmask 10001111
          -175 -55 -55 -45 -45 -55 55 175 vhcurveto
          hintmask 01010111
          175 55 55 45 vhcurveto
          endchar
        </CharString>
        <CharString name="afii10097">
          -7 -15 245 -230 230 -20 20 210 20 hstemhm
          60 90 150 80 hintmask 00111100
          300 210 rmoveto
          -185 vlineto
          -46 callgsubr
          hintmask 01011100
          30 callsubr
          -180 vlineto
          -140 -60 -60 -65 -105 145 -10 0 hvcurveto
          0 -109 -10 -11 -80 vhcurveto
          -11 -80 rlineto
          -25 -3 -11 -10 -10 hhcurveto
          -15 -15 25 0 hvcurveto
          -10 -10 rlineto
          hintmask 10011100
          0 20 -45 55 45 25 25 40 5 vhcurveto
          11 80 rlineto
          hintmask 00111100
          50 7 27 30 55 hhcurveto
          20 vmoveto
          -70 -40 40 65 65 40 40 70 hvcurveto
          40 -210 hlineto
          endchar
        </CharString>
        <CharString name="afii10098">
          -102 20 callsubr
          110 -20 hstem
          95 80 vstem
          370 440 rmoveto
          7 callsubr
          35 vvcurveto
          20 -18 callsubr
          -25 -25 -40 -45 vvcurveto
          -265 -10 hlineto
          -81 callgsubr
          415 vlineto
          endchar
        </CharString>
        <CharString name="afii10099">
          13 -69 -21 111 -21 415 20 -20 145 140 -20 hstemhm
          3 callsubr
          hintmask 11101110
          350 60 rmoveto
          -100 -35 -35 -39 vhcurveto
          -15 vlineto
          94 60 60 90 hvcurveto
          225 vlineto
          25 callsubr
          170 vlineto
          140 15 rlineto
          hintmask 11011110
          15 -140 140 -77 callsubr
          -115 -60 -15 vlineto
          -62 callsubr
          -505 -60 callgsubr
          300 -58 callgsubr
          endchar
        </CharString>
        <CharString name="afii10100">
          -82 20 callsubr
          -20 180 28 callsubr
          130 65 hintmask 11011000
          305 440 rmoveto
          -53 callgsubr
          -340 -10 hlineto
          -81 callgsubr
          415 vlineto
          25 60 32 callsubr
        </CharString>
        <CharString name="afii10101">
          -52 -15 20 215 20 215 20 -14 callsubr
          -90 220 cntrmask 11100000
          hintmask 11110000
          -100 callgsubr
          -59 -54 53 162 -2 hvcurveto
          85 hlineto
          35 -80 rlineto
          hintmask 11101000
          10 180 -22 callsubr
          -80 rlineto
          hintmask 11110000
          -85 hlineto
          162 2 54 53 49 hhcurveto
          endchar
        </CharString>
        <CharString name="afii10102">
          2 callgsubr
          1 callsubr
          hintmask 10110100
          -86 callsubr
          hintmask 10111000
          0 -5 45 40 vvcurveto
          35 5 45 -29 callsubr
          -15 -5 -20 -20 -5 -20 rrcurveto
          0 -35 50 -70 -80 -55 -55 -60 vhcurveto
          -155 250 0 -110 vvcurveto
          -50 -40 -40 -55 -70 -55 55 95 -25 vhcurveto
          -15 27 callsubr
          -45 -40 vvcurveto
          hintmask 01111000
          -65 callgsubr
          hintmask 10111000
          22 callgsubr
          endchar
        </CharString>
        <CharString name="afii10103">
          -58 callsubr
        </CharString>
        <CharString name="afii10104">
          -217 21 -21 520 100 hstem
          10 90 65 100 vstem
          100 -93 callgsubr
          70 560 -105 callsubr
          155 -97 callgsubr
          endchar
        </CharString>
        <CharString name="afii10105">
          -217 -74 callgsubr
        </CharString>
        <CharString name="afii10106">
          143 -20 70 -50 20 250 20 150 20 hstemhm
          120 20 145 80 155 90 hintmask 10111110
          365 290 rmoveto
          145 vlineto
          60 15 rlineto
          10 -370 -10 vlineto
          -39 callgsubr
          hintmask 01111110
          -10 200 vlineto
          127 7 58 63 75 vvcurveto
          -40 callsubr
          endchar
        </CharString>
        <CharString name="afii10107">
          203 0 20 230 20 -20 210 28 callsubr
          160 80 165 90 hintmask 11011100
          415 270 rmoveto
          165 vlineto
          60 15 rlineto
          hintmask 10111100
          10 -200 -10 vlineto
          -62 callsubr
          hintmask 11011100
          -165 -160 165 vlineto
          55 15 rlineto
          hintmask 10111100
          -66 callsubr
          -10 10 callgsubr
          vlineto
          -55 15 rlineto
          225 160 -225 vlineto
          -46 callgsubr
          -10 185 vlineto
          145 65 65 70 hvcurveto
          hintmask 11011100
          70 -65 65 -145 vhcurveto
          -20 vmoveto
          75 45 -45 -70 -70 -45 -45 -75 hvcurveto
          -45 230 hlineto
          endchar
        </CharString>
        <CharString name="afii10108">
          -78 callsubr
        </CharString>
        <CharString name="afii10109">
          -12 21 -21 400 60 10 -20 71 -21 120 -20 28 callsubr
          hintmask 00011000
          215 500 rmoveto
          30 hlineto
          100 120 rlineto
          -90 hlineto
          hintmask 11000100
          -36 -399 rmoveto
          -44 -76 rlineto
          -120 vlineto
          55 18 callsubr
          60 15 rlineto
          410 -41 callsubr
          vlineto
          hintmask 10100100
          205 -10 hlineto
          -65 -15 rlineto
          -255 vlineto
          90 160 rlineto
          hintmask 11000100
          110 62 18 20 35 hhcurveto
          15 10 -5 0 hvcurveto
          hintmask 10100100
          15 -70 rlineto
          0 -20 5 -15 -55 -22 -20 -40 -23 vhcurveto
          -25 -44 165 -271 -62 callsubr
          -10 -202 10 vlineto
          55 15 rlineto
          endchar
        </CharString>
        <CharString name="afii10110">
          -4 callsubr
          75 105 hstemhm
          135 65 90 65 hintmask 00111000
          245 530 -27 callgsubr
          15 0 hvcurveto
          -65 -44 callsubr
          -10 -15 vvcurveto
          -45 35 -35 75 75 35 35 45 15 -5 10 0 vhcurveto
          -65 27 callsubr
          -15 -20 vvcurveto
          -35 -20 -20 -25 vhcurveto
          hintmask 11000000
          -30 -615 rmoveto
          -125 -42 -38 -40 -55 hhcurveto
          -15 -15 5 0 hvcurveto
          -15 75 -26 callsubr
          80 30 30 60 20 vhcurveto
          28 85 -173 435 -60 15 rlineto
          -22 callgsubr
          vlineto
          -55 -15 127 -319 103 309 -65 25 rlineto
          10 150 -10 vlineto
          -65 -25 rlineto
          endchar
        </CharString>
        <CharString name="afii10145">
          103 33 callsubr
          205 85 vstem
          250 hmoveto
          25 -155 rlineto
          35 hlineto
          25 155 rlineto
          205 10 hlineto
          15 callsubr
          -655 -205 655 vlineto
          -95 callgsubr
          vlineto
          endchar
        </CharString>
        <CharString name="afii10146">
          88 0 20 370 20 180 20 -20 120 hstemhm
          15 65 90 85 100 65 35 95 hintmask 11101111
          255 410 rmoveto
          180 100 vlineto
          -104 callsubr
          -170 75 hlineto
          60 15 rlineto
          hintmask 11011111
          10 -205 -10 vlineto
          -62 callsubr
          hintmask 11101111
          -75 -160 vlineto
          -91 callgsubr
          90 -565 hlineto
          -46 callgsubr
          -10 180 vlineto
          165 95 95 110 110 -11 callgsubr
          -125 -125 -60 -60 -105 hvcurveto
          -35 hlineto
          endchar
        </CharString>
        <CharString name="afii10147">
          68 -35 callsubr
          340 20 340 -20 35 -20 hstemhm
          40 95 280 95 hintmask 10101110
          -102 callsubr
          hintmask 01110110
          -235 22 callsubr
          65 75 -75 -265 hvcurveto
          -280 hlineto
          265 75 75 65 vhcurveto
          -700 vmoveto
          -65 -75 75 265 hvcurveto
          280 hlineto
          -265 -75 -75 -65 vhcurveto
          endchar
        </CharString>
        <CharString name="afii10148">
          33 6 -21 660 70 -15 -20 hstemhm
          hintmask 10100000
          307 160 rmoveto
          -157 515 -53 callsubr
          210 -690 rlineto
          15 hlineto
          130 550 rlineto
          hintmask 11000000
          86 20 25 24 55 hhcurveto
          10 15 4 callsubr
          70 rlineto
          0 -10 5 -15 -40 -32 -30 -150 -33 vhcurveto
          endchar
        </CharString>
        <CharString name="afii10193">
          38 -5 callsubr
          170 80 vstem
          35 hmoveto
          185 hlineto
          25 -145 rlineto
          30 hlineto
          25 145 rlineto
          185 10 hlineto
          -60 15 rlineto
          410 vlineto
          60 15 rlineto
          10 -195 -10 vlineto
          55 -15 rlineto
          -415 -170 415 -71 callsubr
          endchar
        </CharString>
        <CharString name="afii10194">
          8 0 20 240 20 160 20 170 -20 hstem
          25 65 65 80 75 65 15 90 vstem
          270 260 rmoveto
          75 45 -45 -75 -75 42 callsubr
          240 hlineto
          20 vmoveto
          160 75 vlineto
          -53 callgsubr
          -145 170 hlineto
          -80 -55 rlineto
          -115 -135 vlineto
          0 5 -30 -45 vvcurveto
          -30 -5 -45 -56 callgsubr
          30 25 45 55 vvcurveto
          65 -415 hlineto
          -46 callgsubr
          -10 175 vlineto
          145 65 65 75 75 -65 65 -145 hvcurveto
          endchar
        </CharString>
        <CharString name="afii10195">
          -12 -35 callsubr
          220 20 235 19 callgsubr
          hintmask 10111100
          11 callsubr
          -80 callgsubr
          hvcurveto
          -15 vmoveto
          45 55 -55 -165 hvcurveto
          -200 hlineto
          165 55 55 45 vhcurveto
          hintmask 01111100
          -460 vmoveto
          -45 -55 55 165 hvcurveto
          200 hlineto
          -165 -55 -55 -45 vhcurveto
          endchar
        </CharString>
        <CharString name="afii10196">
          -52 6 -21 420 70 hstem
          264 121 rmoveto
          -119 314 -30 callgsubr
          170 -450 rlineto
          15 hlineto
          95 335 rlineto
          66 19 21 19 45 hhcurveto
          10 15 4 callsubr
          70 rlineto
          0 -10 5 -15 -25 -28 -25 -130 -37 vhcurveto
          endchar
        </CharString>
        <CharString name="afii61352">
          393 11 -21 31 -21 310 30 -30 95 295 -20 30 39 callgsubr
          95 75 130 75 hintmask 0110101111000000
          460 175 rmoveto
          -285 525 rlineto
          -135 hlineto
          hintmask 0110011111000000
          -40 callgsubr
          -20 rlineto
          -635 vlineto
          -83 callgsubr
          rlineto
          580 vlineto
          hintmask 1010011111000000
          340 -625 rlineto
          15 675 hlineto
          65 25 rlineto
          hintmask 0110101111000000
          10 -150 vlineto
          hintmask 0101011111000000
          -40 callgsubr
          -25 rlineto
          255 30 -89 callgsubr
          hintmask 0110101111000000
          -120 -370 rmoveto
          -30 240 30 vlineto
          endchar
        </CharString>
        <CharString name="agrave">
          -71 callgsubr
          60 -21 120 -20 -32 callsubr
          145 80 hintmask 1010001010000000
          -105 callgsubr
          hintmask 0101000110000000
          -103 callsubr
          hintmask 0000110000000000
          174 vmoveto
          -90 hlineto
          100 -120 rlineto
          30 hlineto
          endchar
        </CharString>
        <CharString name="amacron">
          -71 callgsubr
          65 40 -32 callsubr
          145 80 hintmask 10100101
          -105 callgsubr
          hintmask 01010011
          -103 callsubr
          hintmask 00001000
          -105 120 -51 callsubr
        </CharString>
        <CharString name="ampersand">
          48 -15 20 255 35 -35 65 55 20 300 -20 35 -20 hstemhm
          35 95 -70 70 -70 85 200 85 -20 55 hintmask 1101100101000000
          275 5 rmoveto
          -90 -55 55 130 135 55 55 85 hvcurveto
          20 20 -20 hlineto
          hintmask 1101100011000000
          -80 -45 45 105 100 50 50 55 60 25 callgsubr
          hintmask 1101010101000000
          75 -65 65 -115 -120 -70 -70 -95 -145 160 -15 0 vhcurveto
          hintmask 1101101000100000
          0 -185 -15 -185 vvcurveto
          -115 90 -90 140 115 85 85 90 60 -30 25 0 vhcurveto
          0 90 0 10 90 vhcurveto
          -10 hlineto
          0 -20 -40 -40 vhcurveto
          hintmask 1011101000100000
          -60 -40 30 -55 hhcurveto
          -85 -10 -100 0 hvcurveto
          10 -5 rlineto
          0 20 40 65 55 45 -45 -75 -80 -55 -55 -80 vhcurveto
          endchar
        </CharString>
        <CharString name="aogonek">
          -17 18 callgsubr
          41 -49 callsubr
          -32 callsubr
          140 55 -50 80 hintmask 0100101001000000
          -105 callgsubr
          hintmask 0001010101000000
          -103 callsubr
          hintmask 1010000010000000
          70 -545 13 callsubr
          50 45 20 20 0 vhcurveto
          25 vlineto
          0 -20 -25 -25 -25 -15 15 20 45 90 40 0 vhcurveto
          -40 hlineto
          0 -105 -30 -55 vvcurveto
          endchar
        </CharString>
        <CharString name="apple">
          863 215 270 rmoveto
          165 vlineto
          -165 -165 rlineto
          365 80 rmoveto
          45 -40 40 -45 -45 -40 -40 -45 -45 40 -40 45 45 40 40 45 vhcurveto
          80 vmoveto
          90 -165 90 165 rlineto
          150 -160 rmoveto
          140 hlineto
          -140 140 rlineto
          -15 -140 rmoveto
          -90 165 -90 -165 rlineto
          355 160 rmoveto
          -140 hlineto
          140 -140 rlineto
          36 -20 rmoveto
          140 hlineto
          -140 140 rlineto
          160 20 rmoveto
          -140 hlineto
          140 -140 rlineto
          14 140 rmoveto
          90 -165 90 165 rlineto
          endchar
        </CharString>
        <CharString name="aring">
          -71 callgsubr
          39 20 110 20 -32 callsubr
          -10 45 70 45 -5 80 hintmask 1010001000100000
          -105 callgsubr
          hintmask 0101000100100000
          -103 callsubr
          hintmask 0000110011000000
          80 129 -88 callsubr
        </CharString>
        <CharString name="asciicircum">
          -72 471 -21 270 -20 hstem
          205 720 rmoveto
          -195 -270 rlineto
          55 hlineto
          140 195 140 -195 rlineto
          55 hlineto
          endchar
        </CharString>
        <CharString name="asciitilde">
          -107 285 65 -10 65 hstemhm
          hintmask 10000000
          290 22 callsubr
          hintmask 01000000
          -50 -70 55 -65 hhcurveto
          hintmask 10000000
          -45 -40 -35 -85 -10 hvcurveto
          15 hlineto
          hintmask 01000000
          35 10 20 20 30 hhcurveto
          hintmask 10000000
          50 70 -55 65 hhcurveto
          hintmask 01000000
          45 40 35 85 10 hvcurveto
          -15 hlineto
          hintmask 10000000
          -35 -10 -20 -20 -30 hhcurveto
          endchar
        </CharString>
        <CharString name="asterisk">
          -112 421 -21 310 -20 hstem
          185 710 rmoveto
          -25 -15 -10 0 hvcurveto
          30 -120 -5 -5 -90 85 rlineto
          -25 -10 -15 -30 -30 vvcurveto
          120 -30 rlineto
          -10 vlineto
          -120 -30 rlineto
          -30 15 -30 25 -10 vhcurveto
          90 85 5 -5 -30 -120 rlineto
          0 15 -10 25 25 15 10 0 vhcurveto
          -30 120 5 5 90 -85 rlineto
          25 10 15 30 30 vvcurveto
          -120 30 rlineto
          10 vlineto
          120 30 rlineto
          30 -15 30 -25 10 vhcurveto
          -90 -85 -5 5 30 120 rlineto
          0 -15 10 -25 vhcurveto
          endchar
        </CharString>
        <CharString name="at">
          348 -80 25 155 20 190 20 -20 190 -15 205 -20 20 hstemhm
          30 80 150 90 -65 80 110 80 165 80 hintmask 1101011101100000
          475 200 rmoveto
          0 -35 -80 -45 -25 -20 20 50 75 45 45 80 vhcurveto
          -40 -365 rmoveto
          -185 -140 140 220 225 140 140 165 165 140 -140 -195 -165 -55 -55 -55 -30 -25 25 60 hvcurveto
          175 vlineto
          70 -55 55 -85 vhcurveto
          hintmask 1110101011100000
          -85 -45 -45 -60 -15 5 -10 0 hvcurveto
          81 20 rlineto
          0 -6 10 15 vvcurveto
          45 25 -1 callgsubr
          30 -30 -80 vhcurveto
          -45 vlineto
          hintmask 1110101101100000
          -150 -65 -65 -65 -55 45 -45 75 60 35 65 0 0 25 -65 110 100 90 90 145 195 -160 160 -225 -225 -160 -160 -225 -225 160 -160 235 145 95 90 0 hvcurveto
          -11 15 rlineto
          0 -94 -80 -125 vhcurveto
          endchar
        </CharString>
        <CharString name="atilde">
          -71 callgsubr
          55 55 0 55 -32 callsubr
          -27 205 -33 80 hintmask 1010001001000000
          -105 callgsubr
          hintmask 0101000101000000
          -103 callsubr
          hintmask 0000010010000000
          93 170 -90 callgsubr
          hintmask 0000100010000000
          -68 callsubr
        </CharString>
        <CharString name="b">
          23 12 callgsubr
          hstemhm
          90 80 200 90 hintmask 10101100
          260 455 rmoveto
          55 55 -55 -170 -170 -55 -55 -45 -65 -35 90 0 hvcurveto
          7 callgsubr
          0 30 60 60 vhcurveto
          15 20 rmoveto
          -75 -30 -50 0 hvcurveto
          hintmask 01011100
          275 -42 callgsubr
          -46 callgsubr
          -10 140 60 vlineto
          hintmask 10101100
          0 35 -75 80 85 90 90 155 155 -90 90 -95 vhcurveto
          endchar
        </CharString>
        <CharString name="backslash">
          -52 -23 callsubr
          45 -10 callsubr
          -45 hlineto
          385 -700 rlineto
          45 hlineto
          endchar
        </CharString>
        <CharString name="bar">
          17 callgsubr
          940 -55 hlineto
          endchar
        </CharString>
        <CharString name="braceleft">
          -197 -189 -21 1000 -20 hstem
          110 90 vstem
          20 280 rmoveto
          55 -5 35 -35 -125 vvcurveto
          -145 vlineto
          -120 60 -60 95 vhcurveto
          20 vlineto
          -40 -25 25 135 hvcurveto
          145 vlineto
          165 -130 10 0 vhcurveto
          0 130 10 165 vvcurveto
          145 vlineto
          135 25 25 40 vhcurveto
          20 vlineto
          -95 -60 -60 -120 hvcurveto
          -145 vlineto
          -125 -35 -35 -55 -5 vhcurveto
          0 0 -15 -5 vvcurveto
          endchar
        </CharString>
        <CharString name="braceright">
          -197 -189 -21 1000 -20 hstem
          85 90 vstem
          265 280 rmoveto
          5 0 15 0 vhcurveto
          -55 5 -35 35 125 vvcurveto
          145 vlineto
          120 -60 60 -95 vhcurveto
          -20 vlineto
          40 25 -25 -135 hvcurveto
          -145 vlineto
          -165 130 -10 0 vhcurveto
          0 -130 -10 -165 vvcurveto
          -145 vlineto
          -135 -25 -25 -40 vhcurveto
          -20 vlineto
          95 60 60 120 hvcurveto
          145 vlineto
          125 35 35 55 5 vhcurveto
          endchar
        </CharString>
        <CharString name="bracketleft">
          -200 20 940 20 hstem
          75 85 vstem
          260 -200 rmoveto
          20 -100 940 100 20 -185 -980 vlineto
          endchar
        </CharString>
        <CharString name="bracketright">
          -200 20 940 20 hstem
          100 85 vstem
          185 -200 rmoveto
          980 -185 -20 100 -940 -100 -20 vlineto
          endchar
        </CharString>
        <CharString name="breve">
          -242 595 105 hstem
          10 65 90 65 vstem
          120 610 -27 callgsubr
          15 0 hvcurveto
          -65 -44 callsubr
          -10 -15 vvcurveto
          -45 35 -35 75 75 35 35 45 15 -5 10 0 vhcurveto
          -65 27 callsubr
          -15 -20 vvcurveto
          -35 -20 -20 -25 vhcurveto
          endchar
        </CharString>
        <CharString name="brokenbar">
          17 callgsubr
          400 -55 hlineto
          55 540 rmoveto
          -55 -400 55 hlineto
          endchar
        </CharString>
        <CharString name="bullet">
          -192 225 150 hstem
          70 150 vstem
          220 300 rmoveto
          40 -35 35 -40 -40 -35 -35 -40 -40 35 -35 40 40 35 35 40 vhcurveto
          endchar
        </CharString>
        <CharString name="c">
          -52 -15 20 450 20 hstem
          45 90 vstem
          -100 callgsubr
          -60 -52 callgsubr
          50 hvcurveto
          endchar
        </CharString>
        <CharString name="cacute">
          -52 -15 20 450 20 61 -21 120 -20 -14 callsubr
          hintmask 11001000
          -100 callgsubr
          -60 -52 callgsubr
          50 hvcurveto
          hintmask 00110000
          -40 60 -96 callsubr
        </CharString>
        <CharString name="caron">
          -232 591 -21 130 -20 hstem
          35 700 -97 callsubr
        </CharString>
        <CharString name="ccaron">
          -52 -15 20 450 20 56 -21 130 -20 -14 callsubr
          hintmask 11001000
          -100 callgsubr
          -60 -52 callgsubr
          50 hvcurveto
          hintmask 00110000
          -105 185 -97 callsubr
        </CharString>
        <CharString name="ccedilla">
          -52 -15 callsubr
          475 20 -14 callsubr
          120 55 hintmask 00101100
          -100 callgsubr
          -60 -52 callgsubr
          50 hvcurveto
          hintmask 10010010
          -30 -505 -79 callgsubr
          hintmask 01010010
          -37 callsubr
        </CharString>
        <CharString name="cedilla">
          -332 -155 20 -20 120 35 -20 hstemhm
          85 55 hintmask 10110000
          40 -50 -79 callgsubr
          hintmask 01110000
          -37 callsubr
        </CharString>
        <CharString name="cent">
          -52 -49 -21 55 20 470 -20 75 -20 -14 callsubr
          95 20 -20 150 hintmask 11111100
          230 -70 rmoveto
          20 56 hlineto
          80 5 60 62 10 82 rrcurveto
          -15 hlineto
          -75 -10 -55 -55 -70 hhcurveto
          449 vlineto
          47 -7 49 -53 24 -89 rrcurveto
          15 hlineto
          hintmask 11111010
          0 -5 45 40 vvcurveto
          35 5 45 -29 callsubr
          -15 -5 -20 -20 -5 -20 rrcurveto
          hintmask 11111100
          0 -28 40 -52 8 vhcurveto
          57 -20 -55 vlineto
          -95 -50 callsubr
          -150 84 -89 101 -6 hvcurveto
          -95 245 rmoveto
          159 48 58 47 7 vhcurveto
          -447 vlineto
          -52 11 -43 61 151 vvcurveto
          endchar
        </CharString>
        <CharString name="circumflex">
          -231 591 -21 130 -20 hstem
          126 630 rmoveto
          -94 callsubr
        </CharString>
        <CharString name="colon">
          -292 -10 110 260 110 hstem
          40 110 vstem
          40 9 callgsubr
          370 vmoveto
          -32 callgsubr
        </CharString>
        <CharString name="comma">
          -292 -85 -24 callgsubr
          hintmask 11100000
          95 100 rmoveto
          -69 callgsubr
          hintmask 11010000
          -89 callsubr
          endchar
        </CharString>
        <CharString name="commaaccent">
          -362 231 9 callsubr
          hstemhm
          10 27 callgsubr
          hintmask 11100000
          60 400 -95 callsubr
          hintmask 11010000
          -103 callgsubr
          endchar
        </CharString>
        <CharString name="copyright">
          308 -30 30 120 20 420 20 120 30 hstem
          20 35 160 90 430 35 vstem
          -64 callgsubr
          -330 210 rmoveto
          50 55 -55 -90 25 hvcurveto
          15 -44 callsubr
          45 35 vvcurveto
          35 5 45 -29 callsubr
          -15 -5 -20 -20 -5 -20 rrcurveto
          0 -35 50 -65 -90 -90 -90 -140 -140 90 -90 100 80 65 65 80 10 -56 callsubr
          -70 -10 -55 -55 -65 hhcurveto
          -55 -55 55 155 155 55 55 45 hvcurveto
          endchar
        </CharString>
        <CharString name="currency">
          23 21 -21 250 20 410 20 6 callsubr
          200 95 vstem
          50 200 rmoveto
          55 -175 hlineto
          -46 callgsubr
          -10 205 -85 callsubr
          175 220 20 -220 50 35 -38 callsubr
          -180 -10 hlineto
          -62 callsubr
          -385 -55 -20 55 -50 -55 vlineto
          140 460 -61 callgsubr
        </CharString>
        <CharString name="d">
          18 12 callgsubr
          hstemhm
          40 90 200 80 hintmask 10011100
          240 455 -48 callsubr
          170 245 rmoveto
          -13 callsubr
          hlineto
          -62 callsubr
          -250 vlineto
          hintmask 10101100
          -33 callsubr
          hintmask 01011100
          -60 140 -85 callsubr
          endchar
        </CharString>
        <CharString name="dagger">
          -40 -4 -1 callsubr
          30 260 -20 hstem
          206 30 vstem
          221 725 rmoveto
          -55 -25 rlineto
          0 40 -80 -155 vvcurveto
          -95 -65 40 0 hvcurveto
          -26 -55 26 -55 rlineto
          0 65 40 95 vhcurveto
          -275 -45 -145 0 vhcurveto
          60 -40 61 40 rlineto
          0 -46 145 275 vvcurveto
          95 65 -40 0 hvcurveto
          26 55 -26 55 rlineto
          0 -65 -40 -95 vhcurveto
          155 40 80 0 vhcurveto
          endchar
        </CharString>
        <CharString name="daggerdbl">
          -42 -4 -21 240 30 210 30 240 -20 hstem
          205 30 vstem
          205 245 rmoveto
          31 callgsubr
          -135 -40 -80 0 vhcurveto
          55 -25 55 25 rlineto
          0 -40 80 135 vvcurveto
          29 callsubr
          210 vlineto
          29 callsubr
          135 40 80 0 vhcurveto
          -55 25 -55 -25 rlineto
          0 40 -80 -135 vvcurveto
          31 callgsubr
          endchar
        </CharString>
        <CharString name="dcaron">
          103 12 callgsubr
          -169 9 callsubr
          hstemhm
          40 90 200 80 55 27 callgsubr
          hintmask 1001001100000000
          240 455 -48 callsubr
          170 245 rmoveto
          -13 callsubr
          hlineto
          -62 callsubr
          -250 vlineto
          hintmask 1010001100000000
          -33 callsubr
          hintmask 0101001100000000
          -60 140 -85 callsubr
          hintmask 0000110010000000
          105 675 -95 callsubr
          hintmask 0000110001000000
          -103 callgsubr
          endchar
        </CharString>
        <CharString name="dcroat">
          18 -15 20 16 -21 455 20 85 20 -20 140 hstemhm
          40 90 200 80 hintmask 10101110
          410 -10 callsubr
          -13 callsubr
          hlineto
          -62 callsubr
          hintmask 10110110
          -95 -140 -20 140 -135 vlineto
          -33 callsubr
          hintmask 01110110
          -60 140 -85 callsubr
          535 60 20 -60 vlineto
          hintmask 10101110
          -170 -125 -48 callsubr
          endchar
        </CharString>
        <CharString name="degree">
          -142 461 -21 270 -20 hstem
          40 65 130 65 vstem
          105 575 rmoveto
          90 30 30 35 35 30 -30 -90 -90 -30 -30 -35 -35 -30 30 90 vhcurveto
          195 hmoveto
          75 -60 60 -70 -70 -60 -60 -75 -75 60 -60 70 70 60 60 75 vhcurveto
          endchar
        </CharString>
        <CharString name="dieresis">
          -197 600 100 hstem
          10 100 65 100 vstem
          110 650 -107 callsubr
        </CharString>
        <CharString name="divide">
          -42 90 110 80 40 80 110 hstem
          164 110 cntrmask 11100000
          30 320 rmoveto
          -40 380 40 vlineto
          -246 -175 -84 callsubr
          310 vmoveto
          -32 callgsubr
        </CharString>
        <CharString name="dollar">
          -12 -49 -21 76 -21 26 -21 720 -20 25 -20 75 -20 hstemhm
          45 65 85 20 40 20 -20 145 -30 65 hintmask 1101011110100000
          195 -70 rmoveto
          20 57 hlineto
          -1 9 10 -1 11 hhcurveto
          10 -55 20 57 hlineto
          94 13 66 75 95 vvcurveto
          116 -80 59 -80 50 vhcurveto
          291 vlineto
          53 -21 38 -55 24 -85 rrcurveto
          15 hlineto
          hintmask 1101011101000000
          0 -5 50 45 vvcurveto
          -81 callsubr
          -20 -10 -20 rrcurveto
          hintmask 1101011110100000
          0 -23 25 -42 15 vhcurveto
          65 -20 -60 vlineto
          hintmask 1010111110100000
          3 -12 -14 2 -14 hhcurveto
          55 -20 -56 vlineto
          -86 -10 -64 -71 -83 vvcurveto
          -112 73 -58 77 -49 vhcurveto
          -323 vlineto
          -75 15 -45 57 -25 95 rrcurveto
          -15 27 callsubr
          -50 -45 vvcurveto
          -66 callgsubr
          0 30 -33 65 -12 vhcurveto
          175 160 rmoveto
          -74 -37 -51 -58 -15 vhcurveto
          272 vlineto
          53 -35 42 -38 -59 vvcurveto
          -260 420 rmoveto
          63 35 45 50 13 vhcurveto
          -247 vlineto
          -49 34 -36 36 56 vvcurveto
          145 -275 rmoveto
          hintmask 1100111110100000
          -289 vlineto
          -1 -7 -6 0 -7 hhcurveto
          -7 -7 0 1 -6 hvcurveto
          313 vlineto
          10 376 rmoveto
          10 10 -1 -2 10 hvcurveto
          -285 vlineto
          -40 24 rlineto
          263 vlineto
          1 3 3 0 4 hhcurveto
          endchar
        </CharString>
        <CharString name="dotaccent">
          -362 600 100 hstem
          10 100 vstem
          110 650 -105 callsubr
          endchar
        </CharString>
        <CharString name="dotlessi">
          21 -34 callgsubr
          hstem
          95 80 vstem
          35 callsubr
          435 -16 callsubr
          endchar
        </CharString>
        <CharString name="e">
          -63 callsubr
          -14 callsubr
          180 90 hintmask 10111000
          -104 callgsubr
          90 230 rmoveto
          hintmask 11011000
          -93 callsubr
          endchar
        </CharString>
        <CharString name="eacute">
          -63 callsubr
          61 -21 120 -20 -14 callsubr
          180 90 hintmask 10100110
          -104 callgsubr
          90 230 rmoveto
          hintmask 11000110
          -93 callsubr
          hintmask 00011000
          -25 55 -96 callsubr
        </CharString>
        <CharString name="ecaron">
          -63 callsubr
          56 -21 130 -20 -14 callsubr
          180 90 hintmask 10100110
          -104 callgsubr
          90 230 rmoveto
          hintmask 11000110
          -93 callsubr
          hintmask 00011000
          -83 180 -97 callsubr
        </CharString>
        <CharString name="ecircumflex">
          -63 callsubr
          70 -21 130 -20 -14 callsubr
          180 90 hintmask 10100110
          -104 callgsubr
          90 230 rmoveto
          hintmask 11000110
          -93 callsubr
          hintmask 00011000
          7 124 rmoveto
          -94 callsubr
        </CharString>
        <CharString name="edieresis">
          -63 callsubr
          55 100 -14 callsubr
          -41 100 65 100 -44 90 hintmask 10101001
          -104 callgsubr
          90 230 rmoveto
          hintmask 11001001
          -93 callsubr
          hintmask 00010110
          -31 120 -107 callsubr
        </CharString>
        <CharString name="edotaccent">
          -63 callsubr
          55 100 -14 callsubr
          47 100 33 90 hintmask 10101010
          -104 callgsubr
          90 230 rmoveto
          hintmask 11001010
          -93 callsubr
          hintmask 00010100
          57 120 -105 callsubr
          endchar
        </CharString>
        <CharString name="egrave">
          -63 callsubr
          60 -21 120 -20 -14 callsubr
          180 90 hintmask 10100110
          -104 callgsubr
          90 230 rmoveto
          hintmask 11000110
          -93 callsubr
          hintmask 00011000
          -18 174 -67 callgsubr
        </CharString>
        <CharString name="eight">
          28 43 callsubr
          30 55 -20 20 -20 75 245 55 -40 40 -40 75 hintmask 0110001100000000
          185 375 rmoveto
          0 -155 -65 -140 vvcurveto
          -105 80 -80 140 vhcurveto
          hintmask 0110100010000000
          135 90 90 105 150 -165 75 0 hvcurveto
          0 130 50 110 vvcurveto
          80 -70 70 -120 -115 -70 -70 -90 -120 120 -60 0 vhcurveto
          215 -215 rmoveto
          hintmask 1010100001000000
          -100 -60 -60 -90 -95 -70 70 100 140 130 45 0 vhcurveto
          0 185 -85 -110 vvcurveto
          -150 540 rmoveto
          75 60 -60 -75 -100 -105 -40 0 hvcurveto
          hintmask 0101010100000000
          0 -140 60 91 vvcurveto
          74 50 50 60 vhcurveto
          endchar
        </CharString>
        <CharString name="ellipsis">
          88 -10 110 hstem
          40 110 80 110 80 110 cntrmask 01110000
          40 9 callgsubr
          190 hmoveto
          -96 callgsubr
          190 hmoveto
          -32 callgsubr
        </CharString>
        <CharString name="emacron">
          -63 callsubr
          65 40 -14 callsubr
          180 90 hintmask 10101100
          -104 callgsubr
          90 230 rmoveto
          hintmask 11001100
          -93 callsubr
          hintmask 00010000
          -108 120 -51 callsubr
        </CharString>
        <CharString name="emdash">
          153 250 40 hstem
          30 290 rmoveto
          -40 575 40 vlineto
          endchar
        </CharString>
        <CharString name="endash">
          -47 250 40 hstem
          30 290 rmoveto
          -40 375 40 vlineto
          endchar
        </CharString>
        <CharString name="eogonek">
          -37 18 callgsubr
          250 6 callgsubr
          -14 callsubr
          20 55 105 90 hintmask 01001101
          -104 callgsubr
          90 230 rmoveto
          hintmask 01010101
          -93 callsubr
          hintmask 10100010
          -70 -545 13 callsubr
          50 45 20 20 0 vhcurveto
          25 vlineto
          0 -20 -25 -25 -25 -15 15 20 45 90 40 0 vhcurveto
          -40 hlineto
          0 -105 -30 -55 vvcurveto
          endchar
        </CharString>
        <CharString name="equal">
          -72 210 40 100 40 hstem
          30 250 rmoveto
          -40 350 40 vlineto
          -350 140 rmoveto
          -40 350 40 vlineto
          endchar
        </CharString>
        <CharString name="eth">
          -17 -35 callsubr
          475 -20 240 -20 hstemhm
          40 90 200 90 hintmask 10111100
          225 475 rmoveto
          -95 -36 callgsubr
          100 100 90 90 155 hvcurveto
          50 vlineto
          161 -50 101 -85 69 vhcurveto
          60 64 -20 20 -62 -67 -34 24 -38 20 -41 18 rlinecurve
          -10 -15 37 -22 33 -24 28 -27 rlinecurve
          -63 -67 20 -20 63 67 43 -47 28 -54 6 -61 rlinecurve
          0 -40 55 -70 vhcurveto
          105 -245 rmoveto
          hintmask 01111100
          -175 -55 -55 -45 -45 -55 55 175 175 55 55 40 50 55 -55 -175 vhcurveto
          endchar
        </CharString>
        <CharString name="exclam">
          -242 -10 110 615 -20 hstem
          60 115 vstem
          120 715 rmoveto
          -35 -25 -25 -45 hvcurveto
          45 -485 rlineto
          30 hlineto
          45 485 rlineto
          45 -25 25 -35 vhcurveto
          -55 -670 rmoveto
          -32 callgsubr
        </CharString>
        <CharString name="exclamdown">
          -242 -255 20 595 110 hstem
          60 115 vstem
          120 -255 rmoveto
          35 25 25 45 hvcurveto
          -45 485 rlineto
          -30 hlineto
          -45 -485 rlineto
          -45 25 -25 35 vhcurveto
          -55 670 rmoveto
          -32 callgsubr
        </CharString>
        <CharString name="f">
          -152 20 callsubr
          240 -20 35 -20 hstemhm
          100 80 105 75 hintmask 11011100
          360 615 rmoveto
          50 -50 50 -75 -80 -55 -55 -80 vhcurveto
          -120 -60 -20 60 -415 -70 callsubr
          415 140 20 -140 120 vlineto
          hintmask 11101100
          -2 callsubr
          endchar
        </CharString>
        <CharString name="five">
          -12 -15 20 205 85 150 30 140 75 20 -20 hstemhm
          20 20 305 95 hintmask 11110110
          190 5 rmoveto
          -85 -65 65 65 45 -16 callgsubr
          -95 -95 75 -75 105 140 100 100 145 145 -100 100 -160 -55 -30 -10 0 vhcurveto
          30 150 rlineto
          135 89 30 55 50 hvcurveto
          hintmask 11101110
          1 10 rlineto
          0 -80 -20 -85 -55 -60 10 1 vhcurveto
          -55 -276 rlineto
          0 40 20 45 115 80 -80 -135 -150 -75 -75 -80 vhcurveto
          endchar
        </CharString>
        <CharString name="florin">
          -152 -229 -21 650 20 280 -20 35 -20 hstemhm
          -70 75 95 80 105 75 hintmask 11101110
          100 -115 rmoveto
          -95 -25 -25 -25 5 callsubr
          45 35 -28 callgsubr
          -75 30 rlineto
          0 -35 -30 -45 vvcurveto
          -50 50 -50 70 75 55 55 80 vhcurveto
          515 140 20 -140 160 vlineto
          -2 callsubr
          hintmask 11011110
          50 -50 50 -75 -80 -55 -55 -80 vhcurveto
          -160 -60 -20 60 vlineto
          endchar
        </CharString>
        <CharString name="foundryicon">
          318 0 222 17 222 17 222 hstem
          50 222 17 222 17 222 cntrmask 11111100
          499 222 rmoveto
          -24 hlineto
          -186 -186 rlineto
          -24 vlineto
          162 210 rmoveto
          -24 hlineto
          -138 -138 rlineto
          -24 vlineto
          114 162 rmoveto
          -23 hlineto
          -91 -90 rlineto
          -24 vlineto
          67 114 rmoveto
          -24 hlineto
          -43 -42 rlineto
          -24 vlineto
          19 66 rmoveto
          -19 -18 hlineto
          12 -204 rmoveto
          24 hlineto
          186 186 rlineto
          24 vlineto
          -162 -210 rmoveto
          24 hlineto
          138 138 rlineto
          24 vlineto
          -114 -162 rmoveto
          24 hlineto
          90 90 rlineto
          24 vlineto
          -66 -114 rmoveto
          24 hlineto
          42 42 rlineto
          24 vlineto
          -18 -66 rmoveto
          18 18 hlineto
          -461 460 rmoveto
          -27 callsubr
          239 -222 rmoveto
          -27 callsubr
          239 -222 rmoveto
          222 222 -222 hlineto
          -461 vmoveto
          16 callgsubr
          -478 17 rmoveto
          16 callgsubr
          endchar
        </CharString>
        <CharString name="four">
          43 0 225 -45 45 475 -20 hstemhm
          305 85 hintmask 01110000
          390 -10 callsubr
          -85 hlineto
          -75 -205 -100 -175 -140 -140 rrcurveto
          315 -155 hlineto
          -46 callgsubr
          hintmask 10110000
          -10 205 -85 callsubr
          hintmask 01110000
          155 vlineto
          90 10 45 50 0 vvcurveto
          10 vlineto
          0 -65 -25 -70 vhcurveto
          -85 hmoveto
          -245 hlineto
          90 95 100 175 55 140 rrcurveto
          endchar
        </CharString>
        <CharString name="g">
          -19 callgsubr
          38 callsubr
          180 90 0 40 hintmask 1011000110000000
          -59 callsubr
          hintmask 1101010010000000
          26 callsubr
          hintmask 1101001010000000
          -75 30 rlineto
          hintmask 1101010001000000
          -46 callsubr
          hintmask 1100101010000000
          -88 callgsubr
          endchar
        </CharString>
        <CharString name="gbreve">
          -19 callgsubr
          30 105 38 callsubr
          -18 65 90 65 -22 90 0 40 hintmask 1011000010010000
          -59 callsubr
          hintmask 1101001000010000
          26 callsubr
          hintmask 1101000100010000
          -75 30 rlineto
          hintmask 1101001000001000
          -46 callsubr
          hintmask 1100100100010000
          -88 callgsubr
          hintmask 0000010001100000
          -18 776 -27 callgsubr
          15 0 hvcurveto
          -65 -44 callsubr
          -10 -15 vvcurveto
          -45 35 -35 75 75 35 35 45 15 -5 10 0 vhcurveto
          -65 27 callsubr
          -15 -20 vvcurveto
          -35 -20 -20 -25 vhcurveto
          endchar
        </CharString>
        <CharString name="gcommaaccent">
          -19 callgsubr
          45 95 74 21 38 callsubr
          40 30 -30 100 40 90 0 40 hintmask 1011000001001000
          -59 callsubr
          hintmask 1101000100001000
          26 callsubr
          hintmask 1101000010001000
          -75 30 rlineto
          hintmask 1101000100000100
          -46 callsubr
          hintmask 1100100010001000
          -88 callgsubr
          hintmask 0000011000010000
          -20 776 rmoveto
          30 20 20 30 25 -20 20 -25 -9 -11 -5 0 hvcurveto
          hintmask 0000011000100000
          0 -5 10 10 vvcurveto
          35 55 -28 callgsubr
          -10 15 rlineto
          0 -75 -25 -105 vvcurveto
          -35 20 -25 30 vhcurveto
          endchar
        </CharString>
        <CharString name="germandbls">
          83 -15 20 6 -21 31 -76 callsubr
          35 -20 hstemhm
          90 80 90 80 -65 65 -5 75 65 70 hintmask 1000110101000000
          275 380 rmoveto
          -155 23 callgsubr
          -120 vvcurveto
          -60 -30 -30 -45 -50 -55 55 95 -25 -56 callsubr
          hintmask 0100111001000000
          0 5 -45 -40 vvcurveto
          -65 callgsubr
          hintmask 1000110011000000
          0 35 -50 65 80 55 55 75 vhcurveto
          hintmask 1000110101000000
          165 -205 10 110 vvcurveto
          hintmask 0010110011000000
          50 70 50 70 vvcurveto
          80 -65 65 -90 -100 -65 -65 -80 vhcurveto
          -110 -60 -15 vlineto
          -62 callsubr
          -405 vlineto
          -46 callgsubr
          -10 190 10 vlineto
          -50 15 rlineto
          545 vlineto
          hintmask 1001010011000000
          90 40 40 45 40 40 -40 -90 vhcurveto
          hintmask 1000110101000000
          -70 -60 -50 -70 vvcurveto
          endchar
        </CharString>
        <CharString name="grave">
          -332 601 -21 120 -20 hstem
          100 700 -67 callgsubr
        </CharString>
        <CharString name="greater">
          -122 16 -21 470 -20 hstem
          275 230 rmoveto
          -245 -185 rlineto
          -50 vlineto
          310 235 -310 235 rlineto
          -50 vlineto
          endchar
        </CharString>
        <CharString name="guillemotleft">
          -142 81 -21 340 -20 hstem
          245 230 rmoveto
          75 140 rlineto
          -20 hlineto
          -140 -140 140 -140 rlineto
          20 hlineto
          -310 140 rmoveto
          185 -170 rlineto
          20 hlineto
          -115 170 115 170 rlineto
          -20 hlineto
          endchar
        </CharString>
        <CharString name="guillemotright">
          -142 81 -21 340 -20 hstem
          20 90 rmoveto
          20 hlineto
          140 140 -140 140 rlineto
          -20 hlineto
          75 -140 rlineto
          50 170 rmoveto
          -20 14 callgsubr
          -170 -115 -170 rlineto
          20 hlineto
          185 170 rlineto
          endchar
        </CharString>
        <CharString name="guilsinglleft">
          -182 31 -21 440 -20 hstem
          20 230 rmoveto
          235 -220 15 15 -155 205 155 205 -15 15 rlineto
          endchar
        </CharString>
        <CharString name="guilsinglright">
          -182 31 -21 440 -20 hstem
          45 450 rmoveto
          -15 -15 155 -205 -155 -205 15 -15 235 220 rlineto
          endchar
        </CharString>
        <CharString name="h">
          28 20 callgsubr
          -20 245 hstemhm
          90 -25 callgsubr
          hintmask 11011000
          30 10 rmoveto
          -10 10 callgsubr
          vlineto
          hintmask 10111000
          -64 callsubr
          -80 -35 -75 0 vhcurveto
          300 -42 callgsubr
          endchar
        </CharString>
        <CharString name="hbar">
          -78 callsubr
        </CharString>
        <CharString name="hungarumlaut">
          -232 580 120 hstem
          10 580 -72 callsubr
        </CharString>
        <CharString name="hyphen">
          -102 270 40 hstem
          30 310 rmoveto
          -40 320 40 vlineto
          endchar
        </CharString>
        <CharString name="i">
          -58 callsubr
        </CharString>
        <CharString name="iacute">
          21 -34 callgsubr
          91 -21 120 -20 28 callsubr
          hintmask 11001000
          95 -93 callgsubr
          hintmask 00110000
          80 500 -96 callsubr
        </CharString>
        <CharString name="icircumflex">
          21 -34 callgsubr
          101 -21 130 -20 28 callsubr
          hintmask 11001000
          95 -93 callgsubr
          hintmask 00110000
          95 570 rmoveto
          -94 callsubr
        </CharString>
        <CharString name="idieresis">
          21 -34 callgsubr
          90 100 hstemhm
          -2 100 -3 80 -12 100 hintmask 11001000
          95 -93 callgsubr
          hintmask 00110100
          63 570 -107 callsubr
        </CharString>
        <CharString name="igrave">
          21 -34 callgsubr
          96 -21 120 -20 28 callsubr
          hintmask 11001000
          95 -93 callgsubr
          hintmask 00110000
          80 625 -67 callgsubr
        </CharString>
        <CharString name="ij">
          8 -229 -21 271 -21 440 20 65 100 hstemhm
          80 95 -80 80 -5 75 80 95 -80 80 hintmask 1111001100000000
          170 -38 callgsubr
          -385 -10 vlineto
          hintmask 1111010010000000
          -81 callgsubr
          415 165 -555 vlineto
          -95 -25 -25 -25 vhcurveto
          hintmask 1111001100000000
          5 callsubr
          44 33 30 1 1 hvcurveto
          -74 30 rlineto
          0 -35 -30 -45 vvcurveto
          255 725 -105 callsubr
          -245 hmoveto
          -52 callsubr
          -25 vhcurveto
          hintmask 1111100100000000
          -25 -25 -25 -25 -25 25 -25 25 25 -51 callgsubr
          hvcurveto
          endchar
        </CharString>
        <CharString name="imacron">
          21 -34 callgsubr
          110 40 28 callsubr
          hintmask 11010000
          95 -93 callgsubr
          hintmask 00100000
          -20 580 -51 callsubr
        </CharString>
        <CharString name="iogonek">
          12 callsubr
          41 -21 525 100 hstemhm
          47 55 -22 100 hintmask 00110100
          95 -93 callgsubr
          145 565 -105 callsubr
          hintmask 11001000
          -133 -660 13 callsubr
          50 45 20 20 0 vhcurveto
          25 vlineto
          0 -20 -25 -25 -25 -15 15 20 45 90 40 0 vhcurveto
          -40 hlineto
          0 -105 -30 -55 vvcurveto
          endchar
        </CharString>
        <CharString name="itilde">
          21 -34 callgsubr
          84 55 0 55 hstemhm
          22 205 -132 80 hintmask 11000100
          95 -93 callgsubr
          hintmask 00011000
          177 614 -90 callgsubr
          hintmask 00101000
          -68 callsubr
        </CharString>
        <CharString name="j">
          -74 callgsubr
        </CharString>
        <CharString name="jcircumflex">
          -229 -21 710 -20 101 -21 130 -20 hstemhm
          -60 75 95 80 hintmask 11001100
          8 callgsubr
          60 -15 rlineto
          -550 vlineto
          -95 -25 -25 -25 5 callsubr
          45 35 -28 callgsubr
          -75 30 rlineto
          0 -35 -30 -45 vvcurveto
          hintmask 00110000
          200 730 rmoveto
          -94 callsubr
        </CharString>
        <CharString name="k">
          -22 -23 callsubr
          90 80 vstem
          209 -83 callsubr
          endchar
        </CharString>
        <CharString name="kcedilla">
          -17 -155 20 -20 120 35 -20 41 -76 callsubr
          28 callsubr
          75 55 hintmask 00011100
          214 -83 callsubr
          hintmask 10100010
          30 -213 -79 callgsubr
          hintmask 01100010
          -37 callsubr
        </CharString>
        <CharString name="kcommaaccent">
          -22 -219 9 callsubr
          71 -76 callsubr
          hstemhm
          90 80 27 27 callgsubr
          hintmask 00111000
          209 -83 callsubr
          hintmask 11000100
          77 -213 -95 callsubr
          hintmask 11000010
          -103 callgsubr
          endchar
        </CharString>
        <CharString name="kgreenlandic">
          -12 21 -21 400 60 10 -20 28 callsubr
          hintmask 11010000
          338 25 rmoveto
          -55 -15 rlineto
          -10 202 -98 callsubr
          -165 271 25 44 rlineto
          40 23 22 20 55 hhcurveto
          hintmask 10110000
          15 20 4 callsubr
          70 rlineto
          hintmask 11010000
          0 -10 5 -15 -35 -18 -20 -110 -62 vhcurveto
          -90 -160 rlineto
          255 vlineto
          65 15 rlineto
          hintmask 10110000
          10 -205 -10 vlineto
          -62 callsubr
          -410 -60 callgsubr
          120 vlineto
          44 76 rlineto
          endchar
        </CharString>
        <CharString name="l">
          -227 -23 callsubr
          90 80 vstem
          30 -61 callsubr
          endchar
        </CharString>
        <CharString name="lacute">
          -227 -62 callgsubr
          91 -21 120 -20 hstemhm
          90 80 hintmask 11001000
          90 25 rmoveto
          650 -41 callsubr
          140 -675 vlineto
          -62 callsubr
          -10 -200 10 vlineto
          hintmask 00110000
          70 740 -96 callsubr
        </CharString>
        <CharString name="lcaron">
          -127 21 -21 531 9 callsubr
          0 -20 28 callsubr
          60 27 callgsubr
          hintmask 10011000
          35 -61 callsubr
          hintmask 01100100
          190 675 -95 callsubr
          hintmask 01100010
          -103 callgsubr
          endchar
        </CharString>
        <CharString name="lcommaaccent">
          -227 -229 9 callsubr
          81 -76 callsubr
          hstemhm
          85 100 -95 80 -15 30 hintmask 00110100
          30 -61 callsubr
          hintmask 11001000
          45 -85 -95 callsubr
          hintmask 11000010
          -103 callgsubr
          endchar
        </CharString>
        <CharString name="ldot">
          -117 21 -21 295 110 295 -20 hstemhm
          90 80 65 110 hintmask 10110000
          30 -61 callsubr
          hintmask 01001000
          145 325 rmoveto
          -32 callgsubr
        </CharString>
        <CharString name="less">
          -122 16 -21 470 -20 hstem
          330 415 rmoveto
          50 vlineto
          -310 -235 310 -235 rlineto
          50 vlineto
          -245 185 rlineto
          endchar
        </CharString>
        <CharString name="logicalnot">
          -42 226 -21 95 40 hstem
          370 40 vstem
          30 340 rmoveto
          -40 340 -95 40 135 vlineto
          endchar
        </CharString>
        <CharString name="lslash">
          -62 callgsubr
          hstemhm
          45 130 -80 80 hintmask 11100000
          35 callsubr
          362 vlineto
          55 63 rlineto
          40 vlineto
          -55 -63 rlineto
          273 -50 callgsubr
          hintmask 11010000
          -62 callsubr
          -338 vlineto
          hintmask 11100000
          -50 -57 rlineto
          -40 vlineto
          hintmask 11010000
          50 57 rlineto
          -272 vlineto
          endchar
        </CharString>
        <CharString name="m">
          288 20 callgsubr
          hstem
          3 callsubr
          175 80 cntrmask 00111000
          35 10 rmoveto
          -10 195 10 vlineto
          -43 callsubr
          190 10 vlineto
          -64 callsubr
          -85 -40 -90 0 0 -30 90 -100 -20 callsubr
          60 -16 callsubr
          endchar
        </CharString>
        <CharString name="macron">
          -252 670 40 hstem
          710 vmoveto
          -40 230 40 vlineto
          endchar
        </CharString>
        <CharString name="mu">
          38 -219 -21 225 20 16 -34 callgsubr
          hstemhm
          90 -25 callgsubr
          hintmask 11011100
          90 435 rmoveto
          -525 vlineto
          -100 -25 -25 -29 -10 vhcurveto
          -15 vlineto
          84 10 50 50 90 vvcurveto
          110 vlineto
          0 30 -35 45 75 25 75 0 vhcurveto
          hintmask 10111100
          -60 140 -85 callsubr
          410 vlineto
          60 15 rlineto
          10 -195 -10 vlineto
          55 -15 rlineto
          -340 vlineto
          hintmask 11011100
          -19 callsubr
          -40 -35 35 95 vhcurveto
          7 callgsubr
          55 15 rlineto
          10 -195 -10 vlineto
          endchar
        </CharString>
        <CharString name="multiply">
          -118 169 -21 304 -20 hstem
          33 180 rmoveto
          28 -28 121 120 123 -124 29 28 -124 124 121 120 -28 28 -121 -120 -123 124 -29 -28 124 -124 rlineto
          endchar
        </CharString>
        <CharString name="n">
          33 20 callgsubr
          hstem
          3 callsubr
          vstem
          35 10 rmoveto
          -10 195 10 vlineto
          -64 callsubr
          -80 -35 -75 0 vhcurveto
          60 -16 callsubr
          endchar
        </CharString>
        <CharString name="nacute">
          33 20 callgsubr
          61 -21 120 -20 hstemhm
          3 callsubr
          hintmask 11001100
          -80 callsubr
          hintmask 00110000
          207 505 -96 callsubr
        </CharString>
        <CharString name="nbspace">
          -242 endchar
        </CharString>
        <CharString name="ncaron">
          33 20 callgsubr
          61 -21 130 -20 hstemhm
          3 callsubr
          hintmask 11001100
          -80 callsubr
          hintmask 00110000
          152 635 -97 callsubr
        </CharString>
        <CharString name="ncommaaccent">
          33 -224 9 callsubr
          76 -21 455 20 28 callsubr
          40 27 callgsubr
          35 80 hintmask 00111001
          35 10 rmoveto
          -10 195 10 vlineto
          -64 callsubr
          -80 -35 -75 0 vhcurveto
          60 -16 callsubr
          hintmask 11000100
          170 -80 -95 callsubr
          hintmask 11000010
          -103 callgsubr
          endchar
        </CharString>
        <CharString name="nine">
          13 -35 callsubr
          260 20 420 -20 35 -20 hstemhm
          30 95 -70 85 220 95 hintmask 01110101
          125 480 rmoveto
          160 60 60 50 65 60 -60 -171 -129 -60 -60 -55 -60 -60 60 140 vhcurveto
          330 -110 rmoveto
          hintmask 01101101
          255 -90 90 -130 -115 -90 -90 -145 -130 90 -90 115 vhcurveto
          95 36 100 -1 hhcurveto
          -50 vlineto
          -235 -75 -75 -60 vhcurveto
          hintmask 10110011
          -55 -35 35 70 20 10 25 0 hvcurveto
          -85 20 rlineto
          0 -10 -15 -30 vvcurveto
          -75 65 -65 110 115 110 110 255 vhcurveto
          endchar
        </CharString>
        <CharString name="ntilde">
          33 20 callgsubr
          50 55 0 55 28 callsubr
          -10 205 -20 80 hintmask 11001010
          -80 callsubr
          hintmask 00010100
          320 615 -90 callgsubr
          hintmask 00100100
          -68 callsubr
        </CharString>
        <CharString name="numbersign">
          88 0 250 -50 50 200 50 -50 250 hstemhm
          hintmask 10100000
          80 500 rmoveto
          -15 -50 rlineto
          121 hlineto
          -52 -200 rlineto
          -119 hlineto
          hintmask 01100000
          -15 -50 rlineto
          121 17 callsubr
          50 hlineto
          hintmask 01100000
          51 200 rlineto
          150 17 callsubr
          50 hlineto
          hintmask 01100000
          51 200 rlineto
          119 hlineto
          15 50 rlineto
          -121 hlineto
          51 200 rlineto
          120 hlineto
          15 50 rlineto
          -122 hlineto
          hintmask 10010000
          52 200 rlineto
          -50 17 callsubr
          -151 hlineto
          hintmask 10010000
          52 200 rlineto
          -50 17 callsubr
          36 -50 rmoveto
          151 hlineto
          -52 -200 rlineto
          -150 hlineto
          endchar
        </CharString>
        <CharString name="o">
          -57 callsubr
          -14 callsubr
          200 90 hintmask 01111000
          -98 callgsubr
          hintmask 10111000
          -80 callgsubr
          vhcurveto
          endchar
        </CharString>
        <CharString name="oacute">
          -57 callsubr
          80 -21 120 19 callgsubr
          hintmask 01100110
          -98 callgsubr
          hintmask 10100110
          -80 callgsubr
          vhcurveto
          hintmask 00011000
          -25 39 -96 callsubr
        </CharString>
        <CharString name="ocircumflex">
          -57 callsubr
          86 -21 130 19 callgsubr
          hintmask 01100110
          -98 callgsubr
          hintmask 10100110
          -80 callgsubr
          vhcurveto
          hintmask 00011000
          105 vmoveto
          -94 callsubr
        </CharString>
        <CharString name="odieresis">
          -57 callsubr
          75 100 -14 callsubr
          -33 100 65 100 -32 90 hintmask 01101001
          -98 callgsubr
          hintmask 10101001
          -80 callgsubr
          vhcurveto
          hintmask 00010110
          -33 105 -107 callsubr
        </CharString>
        <CharString name="oe">
          253 -15 20 16 -21 230 6 callgsubr
          -36 callsubr
          180 90 hintmask 10011110
          11 callsubr
          -7 callsubr
          105 40 95 0 0 40 -95 105 0 callgsubr
          270 hlineto
          160 -85 85 -95 -95 -40 -95 0 0 -40 95 -105 vhcurveto
          -15 vmoveto
          45 55 -55 -175 hvcurveto
          hintmask 01101110
          -175 -55 -55 -45 -45 -55 55 175 175 55 55 45 vhcurveto
          280 hmoveto
          -93 callsubr
          endchar
        </CharString>
        <CharString name="ogonek">
          -317 12 callsubr
          hstem
          10 55 vstem
          10 -85 13 callsubr
          50 45 20 20 0 vhcurveto
          25 vlineto
          0 -20 -25 -25 -25 -15 15 20 45 90 40 0 vhcurveto
          -40 hlineto
          0 -105 -30 -55 vvcurveto
          endchar
        </CharString>
        <CharString name="ograve">
          -57 callsubr
          81 -21 120 19 callgsubr
          hintmask 01100110
          -98 callgsubr
          hintmask 10100110
          -80 callgsubr
          vhcurveto
          hintmask 00011000
          -15 160 -67 callgsubr
        </CharString>
        <CharString name="ohungarumlaut">
          -57 callsubr
          65 120 -36 callsubr
          hintmask 01101100
          -98 callgsubr
          hintmask 10101100
          -80 callgsubr
          vhcurveto
          hintmask 00010000
          -80 45 -72 callsubr
        </CharString>
        <CharString name="omacron">
          -57 callsubr
          95 40 -36 callsubr
          hintmask 01101100
          -98 callgsubr
          hintmask 10101100
          -80 callgsubr
          vhcurveto
          hintmask 00010000
          -105 115 -51 callsubr
        </CharString>
        <CharString name="one">
          -192 21 -21 715 -20 hstem
          110 85 vstem
          195 715 rmoveto
          -185 -40 rlineto
          -15 100 -635 vlineto
          -46 callgsubr
          -10 205 -85 callsubr
          endchar
        </CharString>
        <CharString name="onehalf">
          88 0 40 125 150 385 -20 30 -20 hstemhm
          85 70 158 20 121 75 hintmask 11011110
          85 675 -48 callgsubr
          -10 -675 rmoveto
          45 hlineto
          hintmask 11101110
          455 700 rlineto
          -45 hlineto
          -86 -400 -21 callgsubr
          -12 callsubr
          30 31 30 35 hvcurveto
          endchar
        </CharString>
        <CharString name="onequarter">
          73 0 100 -25 25 600 -20 30 -20 hstemhm
          85 70 240 70 hintmask 01011100
          395 16 callsubr
          hintmask 10011100
          -10 150 10 vlineto
          -40 10 rlineto
          hintmask 01011100
          -25 callsubr
          -310 410 -48 callgsubr
          hintmask 10101100
          -10 -675 rmoveto
          -9 callsubr
          endchar
        </CharString>
        <CharString name="onesuperior">
          -267 421 -21 310 -20 hstem
          75 70 vstem
          75 675 -48 callgsubr
          endchar
        </CharString>
        <CharString name="ordfeminine">
          -156 390 20 -20 180 -15 155 hstemhm
          20 75 -54 54 106 70 hintmask 10110100
          201 570 rmoveto
          -125 -56 -55 -45 -45 36 -35 60 50 35 45 0 hvcurveto
          -35 110 10 vlineto
          -40 12 rlineto
          188 vlineto
          55 -45 45 -70 vhcurveto
          hintmask 01001100
          -80 -35 -35 -40 -3 5 -22 0 hvcurveto
          65 10 rlineto
          0 -5 20 10 vvcurveto
          25 20 20 -51 callgsubr
          -25 -60 vhcurveto
          -150 vmoveto
          hintmask 10110100
          0 -30 -50 -35 -20 -21 20 40 50 36 35 70 vhcurveto
          endchar
        </CharString>
        <CharString name="ordmasculine">
          -162 411 -21 320 -20 hstem
          20 75 130 75 vstem
          160 695 -89 callgsubr
          endchar
        </CharString>
        <CharString name="oslash">
          -57 callsubr
          -14 callsubr
          200 90 hintmask 01111000
          11 callsubr
          -63 14 -52 24 -39 hvcurveto
          -43 -51 25 -25 39 47 rlineto
          hintmask 10111000
          -41 35 47 -21 49 hhcurveto
          100 90 90 155 62 -15 52 -24 40 hvcurveto
          44 51 -25 25 -40 -47 rlineto
          40 -35 -46 22 -49 hhcurveto
          -15 vmoveto
          31 36 -26 -74 19 hvcurveto
          -181 -216 rlineto
          -3 25 -2 28 33 vvcurveto
          175 55 55 45 vhcurveto
          100 -230 rmoveto
          hintmask 01111000
          -175 -55 -55 -45 -31 -36 26 74 -19 vhcurveto
          180 216 rlineto
          4 -25 2 -28 -33 vvcurveto
          endchar
        </CharString>
        <CharString name="otilde">
          -57 callsubr
          70 55 0 55 -14 callsubr
          -3 205 -2 90 hintmask 01100101
          -98 callgsubr
          hintmask 10100101
          -80 callgsubr
          vhcurveto
          hintmask 00001010
          87 150 -90 callgsubr
          hintmask 00010010
          -68 callsubr
        </CharString>
        <CharString name="p">
          -76 callgsubr
        </CharString>
        <CharString name="paragraph">
          -11 -219 -21 920 20 hstem
          250 35 60 35 vstem
          30 475 rmoveto
          -125 100 -100 120 vhcurveto
          -490 35 920 60 -920 35 920 71 20 -201 vlineto
          -120 -100 -100 -125 hvcurveto
          endchar
        </CharString>
        <CharString name="parenleft">
          -207 -209 -21 1040 -20 hstem
          60 90 vstem
          60 290 rmoveto
          -340 195 -180 0 vhcurveto
          10 10 rlineto
          0 -115 160 350 vvcurveto
          350 115 160 0 vhcurveto
          -10 10 rlineto
          0 -195 -180 -340 vvcurveto
          endchar
        </CharString>
        <CharString name="parenright">
          -207 -209 -21 1040 -20 hstem
          125 90 vstem
          215 290 rmoveto
          340 -195 180 0 vhcurveto
          -10 -10 rlineto
          0 115 -160 -350 vvcurveto
          -350 -115 -160 0 vhcurveto
          10 -10 rlineto
          0 195 180 340 vvcurveto
          endchar
        </CharString>
        <CharString name="percent">
          138 29 callgsubr
          20 75 130 75 hintmask 01101111
          -33 callgsubr
          hintmask 10011111
          15 vmoveto
          -75 -65 -65 -95 -95 65 -65 75 75 65 65 95 95 -65 65 -75 hvcurveto
          300 -415 -89 callgsubr
          endchar
        </CharString>
        <CharString name="period">
          -292 -10 110 hstem
          40 110 vstem
          40 9 callgsubr
          endchar
        </CharString>
        <CharString name="periodcentered">
          -242 295 110 hstem
          65 110 vstem
          65 350 rmoveto
          -32 callgsubr
        </CharString>
        <CharString name="perthousand">
          438 29 callgsubr
          0 75 130 75 40 75 130 75 hintmask 0110110111000000
          -33 callgsubr
          hintmask 1001101111000000
          15 vmoveto
          -75 -65 -65 -95 -95 65 -65 75 75 65 65 95 95 -65 65 -75 hvcurveto
          280 -415 -89 callgsubr
          320 -15 -89 callgsubr
          endchar
        </CharString>
        <CharString name="plus">
          -42 126 -21 175 40 175 -20 hstem
          200 40 vstem
          30 320 rmoveto
          -40 170 -175 40 175 44 callsubr
          vlineto
          endchar
        </CharString>
        <CharString name="plusminus">
          -42 120 40 150 40 175 -20 hstem
          200 40 vstem
          36 160 rmoveto
          -40 370 40 -166 150 44 callsubr
          -170 -40 170 -150 vlineto
          endchar
        </CharString>
        <CharString name="q">
          37 callgsubr
          45 90 200 80 hintmask 10111000
          245 5 rmoveto
          -55 -52 callgsubr
          45 65 35 -90 0 hvcurveto
          10 callsubr
          0 -30 -60 -60 vhcurveto
          170 430 rmoveto
          60 15 rlineto
          10 -140 -60 vlineto
          0 -35 75 -80 -85 -50 callsubr
          vhcurveto
          hintmask 01111000
          -47 callsubr
          95 75 30 50 0 vhcurveto
          -250 vlineto
          -46 callgsubr
          hintmask 10111000
          -10 200 -85 callsubr
          endchar
        </CharString>
        <CharString name="question">
          -22 -10 110 310 85 205 20 hstem
          20 20 120 110 65 95 vstem
          160 9 callgsubr
          270 455 rmoveto
          130 -90 90 -135 -105 -6 callsubr
          85 85 55 -55 -145 -145 -55 -55 -110 hvcurveto
          25 -55 5 -90 0 vvcurveto
          30 hlineto
          25 125 rlineto
          90 20 85 85 115 vvcurveto
          endchar
        </CharString>
        <CharString name="questiondown">
          -22 -240 -20 225 85 310 110 hstem
          30 95 65 110 120 20 vstem
          300 415 rmoveto
          30 28 callgsubr
          -7 callgsubr
          25 -25 30 30 -1 callgsubr
          vhcurveto
          -270 -455 rmoveto
          -130 90 -90 135 105 80 80 95 90 -45 45 -55 -15 -15 -5 0 vhcurveto
          20 -80 rlineto
          65 25 -25 -35 -75 -70 -70 -85 -85 -55 55 145 145 55 55 110 hvcurveto
          -25 55 -5 90 0 vvcurveto
          -30 hlineto
          -25 -125 rlineto
          -90 -20 -85 -85 -115 vvcurveto
          endchar
        </CharString>
        <CharString name="quotedbl">
          -182 500 200 hstem
          170 -10 callsubr
          11 callgsubr
          -220 hmoveto
          11 callgsubr
          endchar
        </CharString>
        <CharString name="quotedblbase">
          -152 -85 -24 callgsubr
          30 110 -35 35 hintmask 11101000
          95 100 rmoveto
          -69 callgsubr
          hintmask 11011000
          -89 callsubr
          140 hmoveto
          -69 callgsubr
          hintmask 11100100
          -89 callsubr
          endchar
        </CharString>
        <CharString name="quotedblleft">
          -152 35 callgsubr
          30 35 -35 110 hintmask 11100100
          235 504 rmoveto
          -11 callsubr
          hintmask 11011000
          -47 callgsubr
          -140 hmoveto
          -11 callsubr
          hintmask 11101000
          -47 callgsubr
          endchar
        </CharString>
        <CharString name="quotedblright">
          -152 525 -24 callgsubr
          30 110 -35 35 hintmask 11101000
          95 710 rmoveto
          -69 callgsubr
          hintmask 11011000
          -89 callsubr
          140 hmoveto
          -69 callgsubr
          hintmask 11100100
          -89 callsubr
          endchar
        </CharString>
        <CharString name="quoteleft">
          -292 35 callgsubr
          hintmask 11010000
          95 504 rmoveto
          -11 callsubr
          hintmask 11100000
          -47 callgsubr
          endchar
        </CharString>
        <CharString name="quoteright">
          -292 525 -24 callgsubr
          hintmask 11100000
          95 710 rmoveto
          -69 callgsubr
          hintmask 11010000
          -89 callsubr
          endchar
        </CharString>
        <CharString name="quotesinglbase">
          -292 -85 -24 callgsubr
          hintmask 11100000
          95 100 rmoveto
          -69 callgsubr
          hintmask 11010000
          -89 callsubr
          endchar
        </CharString>
        <CharString name="quotesingle">
          -312 521 -21 200 -20 hstem
          40 -10 callsubr
          11 callgsubr
          endchar
        </CharString>
        <CharString name="r">
          26 callgsubr
          28 callsubr
          hintmask 10110000
          -68 callgsubr
          hintmask 11010000
          120 -140 -10 vlineto
          -81 callgsubr
          endchar
        </CharString>
        <CharString name="racute">
          26 callgsubr
          66 -21 120 -20 28 callsubr
          hintmask 10100100
          -68 callgsubr
          hintmask 11000100
          120 -140 -10 vlineto
          -81 callgsubr
          hintmask 00011000
          10 495 -96 callsubr
        </CharString>
        <CharString name="rcaron">
          26 callgsubr
          66 -21 130 -20 28 callsubr
          hintmask 10100100
          -68 callgsubr
          hintmask 11000100
          120 -140 -10 vlineto
          -81 callgsubr
          hintmask 00011000
          -65 625 -97 callsubr
        </CharString>
        <CharString name="rcommaaccent">
          -122 -219 9 callsubr
          71 -21 405 55 -55 70 hstemhm
          85 100 -90 80 -20 30 hintmask 00101010
          -68 callgsubr
          hintmask 00110010
          120 -140 -10 vlineto
          -81 callgsubr
          hintmask 11000100
          -40 -75 -95 callsubr
          hintmask 11000001
          -103 callgsubr
          endchar
        </CharString>
        <CharString name="registered">
          308 -30 30 120 230 -20 20 200 20 130 30 hstemhm
          20 35 205 80 140 90 165 35 hintmask 1101111110000000
          -64 callgsubr
          hintmask 1011111110000000
          -365 -20 rmoveto
          55 26 -30 -50 8 hvcurveto
          11 -65 rlineto
          hintmask 1101111110000000
          -40 7 23 -25 45 hhcurveto
          50 20 40 0 hvcurveto
          -10 10 rlineto
          0 -10 -20 -15 -10 -10 10 25 -4 vhcurveto
          -11 65 rlineto
          -13 80 -107 10 0 0 145 10 100 vvcurveto
          60 -60 60 -140 vhcurveto
          -165 -10 hlineto
          55 -15 rlineto
          -390 vlineto
          -55 -15 rlineto
          -10 190 41 callsubr
          hintmask 1011111110000000
          175 vlineto
          20 vmoveto
          200 30 vlineto
          70 40 -40 -60 -60 -40 -40 -70 hvcurveto
          endchar
        </CharString>
        <CharString name="ring">
          -312 550 20 110 20 hstem
          5 45 70 45 vstem
          165 625 -88 callsubr
        </CharString>
        <CharString name="s">
          2 callgsubr
          1 callsubr
          hintmask 10110100
          -86 callsubr
          hintmask 10111000
          0 -5 45 40 vvcurveto
          35 5 45 -29 callsubr
          -15 -5 -20 -20 -5 -20 rrcurveto
          0 -35 50 -70 -80 -55 -55 -60 vhcurveto
          -155 250 0 -110 vvcurveto
          -50 -40 -40 -55 -70 -55 55 95 -25 vhcurveto
          -15 27 callsubr
          -45 -40 vvcurveto
          hintmask 01111000
          -65 callgsubr
          hintmask 10111000
          22 callgsubr
          endchar
        </CharString>
        <CharString name="sacute">
          2 callgsubr
          61 -21 120 -20 1 callsubr
          hintmask 10100101
          -86 callsubr
          hintmask 10100110
          0 -5 45 40 vvcurveto
          35 5 45 -29 callsubr
          -15 -5 -20 -20 -5 -20 rrcurveto
          0 -35 50 -70 -80 -55 -55 -60 vhcurveto
          -155 250 0 -110 vvcurveto
          -50 -40 -40 -55 -70 -55 55 95 -25 vhcurveto
          -15 27 callsubr
          -45 -40 vvcurveto
          hintmask 01100110
          -65 callgsubr
          hintmask 10100110
          22 callgsubr
          hintmask 00011000
          -48 530 -96 callsubr
        </CharString>
        <CharString name="scaron">
          2 callgsubr
          56 -21 130 -20 1 callsubr
          hintmask 10100101
          -86 callsubr
          hintmask 10100110
          0 -5 45 40 vvcurveto
          35 5 45 -29 callsubr
          -15 -5 -20 -20 -5 -20 rrcurveto
          0 -35 50 -70 -80 -55 -55 -60 vhcurveto
          -155 250 0 -110 vvcurveto
          -50 -40 -40 -55 -70 -55 55 95 -25 vhcurveto
          -15 27 callsubr
          -45 -40 vvcurveto
          hintmask 01100110
          -65 callgsubr
          hintmask 10100110
          22 callgsubr
          hintmask 00011000
          -105 655 -97 callsubr
        </CharString>
        <CharString name="scedilla">
          -77 -15 callsubr
          31 -21 465 20 hstemhm
          50 65 107 55 23 40 -40 70 hintmask 0010011001000000
          -86 callsubr
          hintmask 0010011010000000
          0 -5 45 40 vvcurveto
          35 5 45 -29 callsubr
          -15 -5 -20 -20 -5 -20 rrcurveto
          0 -35 50 -70 -80 -55 -55 -60 vhcurveto
          -155 250 0 -110 vvcurveto
          -50 -40 -40 -55 -70 -55 55 95 -25 vhcurveto
          -15 27 callsubr
          -45 -40 vvcurveto
          hintmask 0000111010000000
          -65 callgsubr
          hintmask 0010011010000000
          22 callgsubr
          hintmask 1001000100000000
          -38 -35 -79 callgsubr
          hintmask 0101000100000000
          -37 callsubr
        </CharString>
        <CharString name="scommaaccent">
          -77 -234 9 callsubr
          50 20 6 -21 465 20 hstemhm
          50 65 50 27 callgsubr
          35 40 -40 70 hintmask 0010110001000000
          -86 callsubr
          hintmask 0010110010000000
          0 -5 45 40 vvcurveto
          35 5 45 -29 callsubr
          -15 -5 -20 -20 -5 -20 rrcurveto
          0 -35 50 -70 -80 -55 -55 -60 vhcurveto
          -155 250 0 -110 vvcurveto
          -50 -40 -40 -55 -70 -55 55 95 -25 vhcurveto
          -15 27 callsubr
          -45 -40 vvcurveto
          hintmask 0001110010000000
          -65 callgsubr
          hintmask 0010110010000000
          22 callgsubr
          hintmask 1100001000000000
          -50 vmoveto
          -30 -20 -20 -30 -25 20 -20 25 9 11 5 0 hvcurveto
          hintmask 1100000100000000
          -103 callgsubr
          endchar
        </CharString>
        <CharString name="section">
          -37 -255 20 930 20 hstemhm
          35 65 -35 65 160 85 -40 70 hintmask 11100100
          35 260 rmoveto
          -200 300 0 -175 vvcurveto
          -70 -50 -50 -50 vhcurveto
          hintmask 11010100
          -65 -40 40 70 20 5 15 0 hvcurveto
          -85 20 rlineto
          0 -5 -10 -25 vvcurveto
          -80 70 -70 120 95 75 75 85 70 -35 55 -50 40 vhcurveto
          50 30 40 50 65 195 -280 40 135 vvcurveto
          70 40 40 45 vhcurveto
          hintmask 11011000
          40 35 -35 -45 -20 -5 -15 0 hvcurveto
          85 -20 rlineto
          0 5 10 25 vvcurveto
          60 -60 60 -100 -85 -65 -65 -85 -65 35 -50 45 -40 vhcurveto
          hintmask 11101000
          -60 -25 -50 -60 -65 vvcurveto
          305 -65 rmoveto
          -50 -15 -40 -20 -25 vhcurveto
          -90 65 -115 45 90 vvcurveto
          50 25 50 35 20 vhcurveto
          80 -65 100 -55 -85 vvcurveto
          endchar
        </CharString>
        <CharString name="semicolon">
          -292 -85 -21 101 105 260 110 hstemhm
          40 110 -35 35 hintmask 11110000
          40 415 -84 callsubr
          55 -315 rmoveto
          -69 callgsubr
          hintmask 11101000
          -89 callsubr
          endchar
        </CharString>
        <CharString name="seven">
          -39 21 -21 625 75 hstem
          150 100 vstem
          423 -10 callsubr
          -403 -160 15 hlineto
          20 85 rlineto
          325 hlineto
          -100 -115 -130 -190 -320 vvcurveto
          100 hlineto
          350 60 160 113 139 vhcurveto
          endchar
        </CharString>
        <CharString name="six">
          13 -35 callsubr
          420 20 260 -20 35 -20 hstemhm
          40 95 220 85 -70 95 hintmask 01110101
          370 220 rmoveto
          -160 -60 -60 -50 -65 -60 60 171 129 60 60 55 60 60 -60 -140 vhcurveto
          -330 110 rmoveto
          hintmask 10110101
          -255 90 -90 130 115 90 90 145 130 -90 90 -115 vhcurveto
          -95 -36 -100 1 hhcurveto
          50 vlineto
          235 75 75 60 vhcurveto
          hintmask 01101110
          55 25 callgsubr
          75 -65 65 -110 -115 -110 -110 -255 vhcurveto
          endchar
        </CharString>
        <CharString name="slash">
          -52 -23 callsubr
          0 vmoveto
          45 hlineto
          385 700 rlineto
          -45 hlineto
          endchar
        </CharString>
        <CharString name="space">
          -242 endchar
        </CharString>
        <CharString name="sterling">
          28 0 65 305 20 310 -20 35 -20 hstemhm
          110 85 170 85 hintmask 11101100
          195 370 rmoveto
          170 20 -170 130 hlineto
          130 50 50 40 45 35 -35 -70 -20 -10 -25 0 vhcurveto
          85 -20 rlineto
          0 10 15 30 vvcurveto
          hintmask 11011100
          75 -60 65 -105 -105 -70 -70 -125 vhcurveto
          -130 -60 -20 60 -130 vlineto
          -130 -70 -65 0 vhcurveto
          -45 430 160 -15 vlineto
          -20 -95 rlineto
          -335 hlineto
          0 95 35 140 vvcurveto
          endchar
        </CharString>
        <CharString name="t">
          -127 -15 33 callgsubr
          hintmask 11110000
          175 460 -39 callsubr
          hintmask 11101000
          -17 callsubr
          hintmask 11110000
          0 callsubr
          endchar
        </CharString>
        <CharString name="tcaron">
          -52 -15 20 435 20 -9 9 callsubr
          10 -20 28 callsubr
          -80 250 -35 27 callgsubr
          hintmask 0011000100000000
          360 620 -95 callsubr
          hintmask 0011000010000000
          -103 callgsubr
          hintmask 1100110000000000
          -185 -160 -39 callsubr
          hintmask 1100101000000000
          -17 callsubr
          hintmask 1100110000000000
          0 callsubr
          endchar
        </CharString>
        <CharString name="tcommaaccent">
          -127 -239 9 callsubr
          55 33 callgsubr
          -180 27 callgsubr
          hintmask 0011110000000000
          175 460 -39 callsubr
          hintmask 0011101000000000
          -17 callsubr
          hintmask 0011110000000000
          0 callsubr
          hintmask 1100000100000000
          -75 -530 -95 callsubr
          hintmask 1100000010000000
          -103 callgsubr
          endchar
        </CharString>
        <CharString name="thorn">
          18 -24 callsubr
          -20 245 hstemhm
          85 80 200 90 hintmask 10101100
          85 -215 rmoveto
          -46 callgsubr
          -10 200 -85 callsubr
          250 vlineto
          hintmask 01101100
          0 30 -50 75 95 90 90 155 155 -90 90 -85 -20 callsubr
          hintmask 10011100
          300 -77 callsubr
          170 -670 rmoveto
          -60 -30 60 0 hvcurveto
          40 callgsubr
          45 55 -55 -170 -170 -55 -55 -55 vhcurveto
          endchar
        </CharString>
        <CharString name="three">
          -2 -15 20 220 85 70 20 300 -20 35 -20 hstemhm
          20 20 0 85 200 85 -60 95 hintmask 1111010100000000
          220 -10 callsubr
          55 50 -50 -100 -105 -45 -45 -70 hvcurveto
          -40 -20 40 hlineto
          hintmask 1111010010000000
          85 55 -55 -135 -130 -55 -55 -90 -95 -70 70 65 55 -16 callgsubr
          -105 -95 80 -80 115 140 90 90 115 185 -185 15 0 vhcurveto
          hintmask 1110101100000000
          0 150 15 145 vvcurveto
          95 -70 70 -120 -115 -65 -65 -75 -30 10 -15 0 vhcurveto
          85 20 rlineto
          0 -10 25 20 vvcurveto
          hintmask 1111010100000000
          70 35 35 60 vhcurveto
          endchar
        </CharString>
        <CharString name="threequarters">
          93 0 100 -25 25 290 135 175 -20 30 43 callgsubr
          165 70 hintmask 0111010101000000
          415 16 callsubr
          hintmask 1011010101000000
          -10 150 10 vlineto
          -40 10 rlineto
          hintmask 0111010101000000
          -25 callsubr
          hintmask 1011010011000000
          -365 -265 rmoveto
          -9 callsubr
          -340 -70 -54 callsubr
          hintmask 1010101101000000
          -34 callsubr
        </CharString>
        <CharString name="threesuperior">
          -197 390 135 185 43 callgsubr
          hintmask 11100100
          165 630 -54 callsubr
          hintmask 11011000
          -34 callsubr
        </CharString>
        <CharString name="tilde">
          -257 595 55 0 55 hstemhm
          10 205 hintmask 01100000
          200 695 -90 callgsubr
          hintmask 10100000
          -68 callsubr
        </CharString>
        <CharString name="trademark">
          248 411 -21 310 -20 hstemhm
          25 160 -70 70 -70 160 -160 245 235 70 hintmask 11010010
          115 685 rmoveto
          -265 vlineto
          -40 -10 rlineto
          -10 150 10 vlineto
          -40 10 rlineto
          265 40 vlineto
          5 -40 20 -34 20 -16 rrcurveto
          10 hlineto
          hintmask 11001010
          0 -5 35 15 vvcurveto
          25 5 -28 callgsubr
          -260 hlineto
          hintmask 11100010
          0 5 -30 -25 vvcurveto
          -15 -5 -35 0 vhcurveto
          10 hlineto
          20 16 20 34 5 40 rrcurveto
          hintmask 11010010
          590 -265 rmoveto
          260 vlineto
          40 10 rlineto
          10 -105 vlineto
          -87 -220 -108 220 rlineto
          -100 -10 hlineto
          40 -10 rlineto
          -255 vlineto
          -40 -15 rlineto
          -10 95 10 vlineto
          hintmask 11000110
          -40 15 rlineto
          220 vlineto
          124 -255 rlineto
          10 hlineto
          101 255 rlineto
          -225 vlineto
          -40 -10 rlineto
          -10 150 10 vlineto
          endchar
        </CharString>
        <CharString name="two">
          -7 0 65 345 85 205 20 hstem
          35 20 275 95 vstem
          200 -10 callsubr
          75 55 -55 -130 -175 -150 -140 -185 -200 hvcurveto
          440 160 -15 hlineto
          -20 -95 rlineto
          -315 14 callgsubr
          85 225 200 165 vvcurveto
          115 -90 90 -125 -95 -6 callsubr
          75 hvcurveto
          endchar
        </CharString>
        <CharString name="twosuperior">
          -196 400 40 125 150 -15 -20 hstemhm
          34 20 121 75 hintmask 10111000
          120 700 -21 callgsubr
          hintmask 11011000
          -12 callsubr
          hvcurveto
          hintmask 10111000
          30 31 30 35 vhcurveto
          endchar
        </CharString>
        <CharString name="u">
          -45 callgsubr
          hstemhm
          75 80 175 80 hintmask 10111000
          44 callgsubr
          hintmask 01111000
          -54 callgsubr
          endchar
        </CharString>
        <CharString name="uacute">
          -45 callgsubr
          101 -21 120 37 callsubr
          hintmask 10100110
          -101 callgsubr
          hintmask 01100110
          -57 callgsubr
          hintmask 00011000
          -243 70 -96 callsubr
        </CharString>
        <CharString name="ucircumflex">
          -45 callgsubr
          106 -21 130 37 callsubr
          hintmask 10100110
          -101 callgsubr
          hintmask 01100110
          -57 callgsubr
          hintmask 00011000
          -220 135 rmoveto
          -94 callsubr
        </CharString>
        <CharString name="udieresis">
          -45 callgsubr
          90 100 hstemhm
          75 80 -45 100 65 100 -45 80 hintmask 10101001
          -101 callgsubr
          hintmask 01101001
          -57 callgsubr
          hintmask 00010110
          -260 130 -107 callsubr
        </CharString>
        <CharString name="ugrave">
          -45 callgsubr
          96 -21 120 37 callsubr
          hintmask 10100110
          -101 callgsubr
          hintmask 01100110
          -57 callgsubr
          hintmask 00011000
          -233 185 -67 callgsubr
        </CharString>
        <CharString name="uhungarumlaut">
          -45 callgsubr
          80 120 hstemhm
          75 -25 callgsubr
          hintmask 10101100
          -101 callgsubr
          hintmask 01101100
          -57 callgsubr
          hintmask 00010000
          -303 70 -72 callsubr
        </CharString>
        <CharString name="umacron">
          -45 callgsubr
          100 40 hstemhm
          75 -25 callgsubr
          hintmask 10101100
          -101 callgsubr
          hintmask 01101100
          -57 callgsubr
          hintmask 00010000
          -333 130 -51 callsubr
        </CharString>
        <CharString name="underscore">
          -102 -90 40 hstem
          30 -50 rmoveto
          -40 320 40 vlineto
          endchar
        </CharString>
        <CharString name="uni00AD">
          -72 270 40 hstem
          30 310 rmoveto
          -40 350 40 vlineto
          endchar
        </CharString>
        <CharString name="uogonek">
          23 18 callgsubr
          41 -34 callgsubr
          hstemhm
          75 80 170 55 -50 80 hintmask 01001101
          44 callgsubr
          hintmask 00011101
          -54 callgsubr
          hintmask 10100010
          -85 -520 13 callsubr
          50 45 20 20 0 vhcurveto
          25 vlineto
          0 -20 -25 -25 -25 -15 15 20 45 90 40 0 vhcurveto
          -40 hlineto
          0 -105 -30 -55 vvcurveto
          endchar
        </CharString>
        <CharString name="uring">
          -45 callgsubr
          70 20 110 20 hstemhm
          75 80 17 45 70 45 -2 80 hintmask 1010010010000000
          -101 callgsubr
          hintmask 0110010010000000
          -57 callgsubr
          hintmask 0001101100000000
          -138 135 -88 callsubr
        </CharString>
        <CharString name="v">
          -47 6 -21 475 -20 hstem
          225 -15 rmoveto
          15 hlineto
          145 440 -99 callgsubr
          -104 -315 -126 325 -30 callgsubr
          rlineto
          endchar
        </CharString>
        <CharString name="w">
          173 6 -21 490 -20 hstem
          326 339 rmoveto
          129 -354 rlineto
          15 hlineto
          135 440 -99 callgsubr
          -92 -303 -128 353 rlineto
          -15 hlineto
          -111 -353 -104 313 -30 callgsubr
          150 -450 rlineto
          15 hlineto
          endchar
        </CharString>
        <CharString name="x">
          -57 21 -34 callgsubr
          hstem
          285 25 rmoveto
          -21 callsubr
          -138 240 103 160 -99 callgsubr
          -92 -144 -88 154 55 15 rlineto
          10 -205 -10 vlineto
          60 -15 130 -228 -110 -172 -83 callgsubr
          100 156 rlineto
          endchar
        </CharString>
        <CharString name="y">
          -4 callsubr
          hstem
          385 425 -77 callgsubr
          -103 -309 -127 319 -30 callgsubr
          173 -435 -28 -85 rlineto
          -60 -20 -30 -30 -80 hhcurveto
          -15 -15 5 0 hvcurveto
          15 -75 -26 callsubr
          55 38 40 125 42 vhcurveto
          endchar
        </CharString>
        <CharString name="yacute">
          -4 callsubr
          101 -21 120 -20 hstemhm
          hintmask 11000000
          215 -85 rmoveto
          -125 -42 -38 -40 -55 hhcurveto
          -15 -15 5 0 hvcurveto
          -15 75 -26 callsubr
          80 30 30 60 20 vhcurveto
          28 85 -173 435 -60 15 rlineto
          -22 callgsubr
          vlineto
          -55 -15 127 -319 103 309 -65 25 rlineto
          10 150 -10 vlineto
          -65 -25 rlineto
          hintmask 00110000
          -163 95 -96 callsubr
        </CharString>
        <CharString name="ydieresis">
          -4 callsubr
          89 100 hstemhm
          105 100 65 100 hintmask 11000000
          215 -85 rmoveto
          -125 -42 -38 -40 -55 hhcurveto
          -15 -15 5 0 hvcurveto
          -15 75 -26 callsubr
          80 30 30 60 20 vhcurveto
          28 85 -173 435 -60 15 rlineto
          -22 callgsubr
          vlineto
          -55 -15 127 -319 103 309 -65 25 rlineto
          10 150 -10 vlineto
          -65 -25 rlineto
          hintmask 00111000
          -180 154 -107 callsubr
        </CharString>
        <CharString name="yen">
          8 0 230 -20 20 45 20 405 -20 hstemhm
          210 85 hintmask 10111000
          90 275 rmoveto
          120 -45 -120 hlineto
          hintmask 01111000
          -20 120 -185 vlineto
          -46 callgsubr
          hintmask 10111000
          -10 205 -85 callsubr
          hintmask 01111000
          185 120 20 -120 45 120 20 -114 vlineto
          144 370 -99 callgsubr
          -138 -355 -142 365 -53 callsubr
          147 -380 rlineto
          -112 hlineto
          endchar
        </CharString>
        <CharString name="z">
          -52 0 20 420 20 hstem
          60 65 195 65 vstem
          -91 callsubr
          endchar
        </CharString>
        <CharString name="zacute">
          -52 0 20 420 20 71 -21 120 -20 hstemhm
          60 65 195 65 hintmask 11001100
          -91 callsubr
          hintmask 00110000
          -130 490 -96 callsubr
        </CharString>
        <CharString name="zcaron">
          -52 0 20 420 20 71 -21 130 -20 hstemhm
          60 65 195 65 hintmask 11001100
          -91 callsubr
          hintmask 00110000
          -185 620 -97 callsubr
        </CharString>
        <CharString name="zdotaccent">
          -52 0 20 420 20 70 100 hstemhm
          60 65 55 100 40 65 hintmask 11010100
          -91 callsubr
          hintmask 00101000
          -40 560 -105 callsubr
          endchar
        </CharString>
        <CharString name="zero">
          38 43 callsubr
          40 95 250 95 hintmask 01101100
          385 22 callsubr
          -280 -70 -70 -55 -55 -70 70 280 280 70 70 55 55 70 -70 -280 vhcurveto
          95 hmoveto
          hintmask 10011100
          255 -110 110 -110 -110 -110 -110 -255 -255 110 -110 110 110 110 110 255 vhcurveto
          endchar
        </CharString>
      <CharString index="0">
        -52 callsubr
        -25 -25 -25 -25 -25 -25 25 -25 25 25 -51 callgsubr
        vhcurveto
        return
      </CharString>
      <CharString index="1">
        485 -82 callsubr
        rlineto
        -465 vlineto
        -135 -60 -60 -90 -80 -60 60 135 vhcurveto
        475 vlineto
        -99 callsubr
        -475 vlineto
        -135 80 -80 135 115 65 65 150 vhcurveto
        return
      </CharString>
      <CharString index="2">
        300 95 rmoveto
        -19 callsubr
        -35 -35 35 60 90 55 55 115 vhcurveto
        -75 215 rmoveto
        40 35 -35 -100 hvcurveto
        -60 vlineto
        -180 -80 -80 -75 -75 50 -50 95 80 35 75 0 hvcurveto
        return
      </CharString>
      <CharString index="3">
        405 230 rmoveto
        160 -85 85 -95 -95 -85 -85 -160 -7 callsubr
        85 65 65 85 10 vhcurveto
        31 callsubr
        return
      </CharString>
      <CharString index="4">
        0 5 -10 -10 vvcurveto
        -35 -55 -30 0 vhcurveto
        10 -15 rlineto
        0 75 25 105 vvcurveto
        35 -20 25 -30 vhcurveto
        return
      </CharString>
      <CharString index="5">
        7 callsubr
        50 vvcurveto
        35 -18 callsubr
        -35 -25 -50 -55 vvcurveto
        return
      </CharString>
      <CharString index="6">
        410 435 rmoveto
        -410 vlineto
        -62 callsubr
        -10 -140 60 vlineto
        0 -35 -75 -80 -80 -60 60 90 vhcurveto
        300 -41 callsubr
        195 -10 vlineto
        -55 -15 rlineto
        10 callsubr
        -95 35 -35 40 65 35 90 0 vhcurveto
        return
      </CharString>
      <CharString index="7">
        21 callsubr
        50 55 -55 -95 25 hvcurveto
        15 -44 callsubr
        45 40 vvcurveto
        35 5 45 -29 callsubr
        -15 -5 -20 -20 -5 -20 rrcurveto
        0 -35 50 -65 -95 -36 callgsubr
        105 85 65 65 85 10 -56 callsubr
        -75 -10 -55 -55 -70 hhcurveto
        return
      </CharString>
      <CharString index="8">
        65 25 rlineto
        10 -150 -40 callgsubr
        -25 return
      </CharString>
      <CharString index="9">
        235 460 rmoveto
        45 55 -55 -175 -175 -55 -55 -45 -45 -55 55 175 175 55 55 45 hvcurveto
        15 vmoveto
        -8 callsubr
        hvcurveto
        return
      </CharString>
      <CharString index="10">
        hmoveto
        -107 callgsubr
        return
      </CharString>
      <CharString index="11">
        -30 25 -25 30 30 -1 callgsubr
        30 28 callgsubr
        -30 -25 -25 -30 vhcurveto
        return
      </CharString>
      <CharString index="12">
        -99 callsubr
        -650 vlineto
        -46 callgsubr
        -10 return
      </CharString>
      <CharString index="13">
        -275 -75 -75 -65 -65 -75 75 275 275 75 75 65 65 75 -75 -275 vhcurveto
        return
      </CharString>
      <CharString index="14">
        25 rmoveto
        410 -41 callsubr
        140 -435 vlineto
        -62 callsubr
        -10 -200 10 vlineto
        return
      </CharString>
      <CharString index="15">
        290 680 rmoveto
        105 hlineto
        -104 callsubr
        -435 hlineto
        -91 callgsubr
        105 -655 hlineto
        -46 callgsubr
        -10 205 -85 callsubr
        return
      </CharString>
      <CharString index="16">
        0 5 -30 -50 vvcurveto
        -35 -5 -45 -56 callgsubr
        35 25 50 55 vvcurveto
        return
      </CharString>
      <CharString index="17">
        rmoveto
        -30 -15 -15 -20 vhcurveto
        -29 -21 55 -40 hhcurveto
        -35 -30 -30 -70 hvcurveto
        15 hlineto
        30 15 15 20 vhcurveto
        return
      </CharString>
      <CharString index="18">
        rmoveto
        35 30 -30 -115 -115 -30 -30 -35 -35 -30 30 115 115 30 30 35 hvcurveto
        15 vmoveto
        -75 -65 -65 -95 -95 65 -65 75 75 65 65 95 95 -65 65 -75 hvcurveto
        return
      </CharString>
      <CharString index="19">
        -55 -15 14 20 30 50 30 0 hvcurveto
        0 40 -25 55 105 75 75 95 59 -25 51 -50 30 vhcurveto
        0 15 30 30 35 10 -75 0 vhcurveto
        75 15 rlineto
        0 -10 80 -90 -55 -25 -40 0 0 -45 20 -45 -105 -75 -75 -95 -95 70 -40 0 vhcurveto
        0 -75 -40 -60 vvcurveto
        -45 35 -35 75 vhcurveto
        160 hlineto
        65 30 -30 -65 -70 -60 -61 -100 hvcurveto
        return
      </CharString>
      <CharString index="20">
        -95 callgsubr
        205 -85 callsubr
        return
      </CharString>
      <CharString index="21">
        -15 callgsubr
        hstemhm
        45 65 260 30 -30 65 hintmask 10101100
        110 570 -73 callsubr
        hintmask 10011100
        -81 callsubr
        -20 -10 -20 rrcurveto
        hintmask 10101010
        -90 callsubr
        hintmask 01101100
        -66 callgsubr
        hintmask 10101010
        -70 callgsubr
        endchar
      </CharString>
      <CharString index="22">
        -20 hstemhm
        45 65 260 30 -30 65 hintmask 1010001100000000
        110 570 -73 callsubr
        hintmask 1001001100000000
        -81 callsubr
        -20 -10 -20 rrcurveto
        hintmask 1010001010000000
        -90 callsubr
        hintmask 0110001100000000
        -66 callgsubr
        hintmask 1010001010000000
        -70 callgsubr
        hintmask 0000110000000000
        return
      </CharString>
      <CharString index="23">
        460 175 rmoveto
        -285 525 rlineto
        -135 36 callgsubr
        -10 150 10 vlineto
        -65 25 rlineto
        580 vlineto
        return
      </CharString>
      <CharString index="24">
        -65 -25 rlineto
        -10 150 10 vlineto
        -65 25 return
      </CharString>
      <CharString index="25">
        vlineto
        -60 15 return
      </CharString>
      <CharString index="26">
        -62 callsubr
        -410 -70 callsubr
        return
      </CharString>
      <CharString index="27">
        -7 callsubr
        100 90 90 155 155 -90 90 -100 return
      </CharString>
      <CharString index="28">
        rmoveto
        30 15 -20 -25 -20 -15 -20 -30 -15 -15 6 0 hvcurveto
        -21 vlineto
        0 15 -5 25 65 25 25 35 vhcurveto
        return
      </CharString>
      <CharString index="29">
        400 -6 callgsubr
        -99 callsubr
        -485 vlineto
        -130 -55 -55 -65 -80 -50 50 50 60 35 35 65 10 vhcurveto
        -70 60 rlineto
        -44 -9 -36 -36 -75 vvcurveto
        -85 80 -80 100 125 80 80 125 vhcurveto
        return
      </CharString>
      <CharString index="30">
        rmoveto
        -99 callgsubr
        return
      </CharString>
      <CharString index="31">
        37 callgsubr
        85 80 200 90 hintmask 10111000
        85 -215 rmoveto
        -46 callgsubr
        -10 200 -85 callsubr
        250 vlineto
        hintmask 01111000
        0 30 -50 75 95 90 90 155 155 -90 90 -85 -20 callsubr
        60 -77 callsubr
        170 -430 rmoveto
        -60 -30 60 0 hvcurveto
        40 callgsubr
        45 55 -55 -170 -170 -55 -55 -55 vhcurveto
        endchar
      </CharString>
      <CharString index="32">
        303 6 -21 36 -76 callsubr
        hstemhm
        105 20 470 85 hintmask 01111000
        404 125 rmoveto
        -219 575 rlineto
        -145 36 callgsubr
        hintmask 10111000
        -10 150 10 vlineto
        -65 25 rlineto
        580 vlineto
        hintmask 01111000
        240 -630 rlineto
        15 hlineto
        215 630 rlineto
        -590 vlineto
        -46 callgsubr
        -10 205 -85 callsubr
        650 vlineto
        60 15 rlineto
        10 -140 vlineto
        endchar
      </CharString>
      <CharString index="33">
        -229 -21 775 100 hstemhm
        -60 75 80 95 -80 80 hintmask 11110000
        8 callgsubr
        hintmask 11101000
        -62 callsubr
        -550 vlineto
        -95 -25 -25 -25 5 callsubr
        45 35 -28 callgsubr
        -75 30 rlineto
        0 -35 -30 -45 vvcurveto
        255 725 rmoveto
        -52 callsubr
        -25 vhcurveto
        hintmask 11110000
        -25 -25 -25 -25 -25 25 -25 25 25 -51 callgsubr
        hvcurveto
        endchar
      </CharString>
      <CharString index="34">
        285 695 rmoveto
        -14 callgsubr
        hvcurveto
        15 -44 callsubr
        50 45 vvcurveto
        return
      </CharString>
      <CharString index="35">
        -22 callgsubr
        hlineto
        -45 -90 rlineto
        return
      </CharString>
</ttFont>
